<svg width="150" height="150" viewBox="0 0 150 150" fill="none" xmlns="http://www.w3.org/2000/svg">
<path d="M111.979 61.5477C111.6 75.708 108.063 89.6049 101.627 102.224C95.1914 114.843 86.0188 125.865 74.7791 134.487C63.5394 125.865 54.3668 114.843 47.931 102.224C41.4951 89.6049 37.9584 75.708 37.5791 61.5477C49.3538 56.5742 62.0061 54.0117 74.7881 54.0117C87.5701 54.0117 100.222 56.5742 111.997 61.5477H111.979Z" fill="white"/>
<path d="M74.7793 129.531C65.2546 121.668 57.4003 111.977 51.6793 101.031C45.7124 89.5943 42.265 77.0119 41.5693 64.1309C62.9351 55.8392 86.6296 55.8392 107.995 64.1309C107.3 77.0119 103.852 89.5943 97.8853 101.031C92.1626 111.978 84.3062 121.668 74.7793 129.531Z" fill="#17345A"/>
<path d="M74.7794 126.627C66.1133 119.164 58.9424 110.124 53.6474 99.9867C48.0766 89.3156 44.7521 77.6158 43.8794 65.6097C63.8229 58.2896 85.7179 58.2896 105.661 65.6097C104.793 77.6144 101.475 89.3139 95.9114 99.9867C90.6164 110.124 83.4455 119.164 74.7794 126.627Z" fill="white"/>
<path d="M94.9181 97.0347C94.6031 97.6857 94.2761 98.3307 93.9431 98.9757C89.072 108.279 82.5827 116.641 74.7791 123.669C66.9756 116.641 60.4862 108.279 55.6151 98.9757C55.2821 98.3307 54.9551 97.6857 54.6401 97.0347H94.9181Z" fill="#17345A"/>
<path d="M67.9182 112.899L66.6612 113.559L66.9012 112.161L65.8872 111.174L67.2882 110.97L67.9182 109.698L68.5452 110.97L69.9462 111.174L68.9322 112.161L69.1722 113.559L67.9182 112.899Z" fill="white"/>
<path d="M81.6433 112.899L80.3863 113.559L80.6263 112.161L79.6123 111.174L81.0163 110.97L81.6433 109.698L82.2673 110.97L83.6713 111.174L82.6573 112.161L82.8973 113.559L81.6433 112.899Z" fill="white"/>
<path d="M74.7795 117.39L73.5255 118.05L73.7655 116.652L72.7515 115.665L74.1525 115.461L74.7795 114.189L75.4065 115.461L76.8075 115.665L75.7935 116.652L76.0335 118.05L74.7795 117.39Z" fill="white"/>
<path d="M78.6858 92.3466C91.8901 90.2125 100.864 77.7784 98.7303 64.5741C96.5963 51.3698 84.1621 42.3955 70.9578 44.5296C57.7535 46.6636 48.7793 59.0978 50.9133 72.3021C53.0473 85.5063 65.4815 94.4806 78.6858 92.3466Z" fill="white"/>
<path d="M99.2771 72.7379C98.3287 77.5834 95.9647 82.0388 92.484 85.5407C89.0034 89.0426 84.5624 91.4337 79.7228 92.4115C74.8831 93.3894 69.8622 92.9101 65.295 91.0342C60.7277 89.1584 56.8193 85.9703 54.0641 81.8731C51.3089 77.7759 49.8305 72.9537 49.816 68.0162C49.8015 63.0788 51.2516 58.248 53.9827 54.1347C56.7139 50.0214 60.6035 46.8104 65.1596 44.9078C69.7158 43.0052 74.7338 42.4964 79.5791 43.4459C86.0721 44.7246 91.7926 48.5269 95.4855 54.0184C99.1784 59.5099 100.542 66.2421 99.2771 72.7379ZM51.8771 63.4679C50.991 67.9977 51.468 72.6886 53.2479 76.9473C55.0278 81.2061 58.0306 84.8414 61.8766 87.3935C65.7226 89.9456 70.239 91.2998 74.8547 91.2851C79.4704 91.2703 83.9781 89.8871 87.8076 87.3104C91.6372 84.7337 94.6167 81.0793 96.3693 76.8092C98.1218 72.5392 98.5688 67.8453 97.6537 63.3212C96.7386 58.7972 94.5024 54.646 91.228 51.3929C87.9536 48.1397 83.788 45.9306 79.2581 45.0449C73.1849 43.8647 66.8916 45.1415 61.7586 48.5952C56.6255 52.0489 53.0719 57.3975 51.8771 63.4679Z" fill="#17345A"/>
<g opacity="0.3">
<path fill-rule="evenodd" clip-rule="evenodd" d="M89.0023 70.7278C88.0894 75.4118 85.9333 79.7641 82.7601 83.3284C79.5868 86.8928 75.5133 89.538 70.9663 90.9868C76.9731 92.0109 83.1423 90.6459 88.1564 87.1833C93.1705 83.7206 96.6321 78.4348 97.8018 72.4547C98.9716 66.4745 97.7569 60.274 94.4172 55.1772C91.0774 50.0805 85.8773 46.4915 79.9273 45.1768C83.592 48.2307 86.3681 52.2139 87.9647 56.7092C89.5613 61.2045 89.9197 66.0464 89.0023 70.7278Z" fill="#676767"/>
</g>
<path fill-rule="evenodd" clip-rule="evenodd" d="M66.5595 45.2369C66.2091 45.811 65.8075 46.3522 65.3595 46.8539C65.1895 47.0428 64.9779 47.1897 64.7415 47.2829C61.6845 48.4619 59.2605 50.4959 57.0525 52.8569C56.2815 53.6879 55.3725 54.3869 54.5355 55.1609C54.3238 55.3489 54.1235 55.5492 53.9355 55.7609C52.5647 58.0989 51.5991 60.6519 51.0795 63.3119C50.7859 64.8113 50.6342 66.335 50.6265 67.8629C50.7113 68.602 51.0408 69.2915 51.5625 69.8219C51.7515 70.0169 51.7695 70.4219 51.8145 70.7219C52.2975 73.8899 53.2035 76.9289 54.9315 79.6439C55.5999 80.7305 56.0673 81.9286 56.3115 83.1809C56.3684 83.4236 56.4701 83.6535 56.6115 83.8589C59.4316 87.091 63.0653 89.5096 67.1355 90.8639C67.3441 90.8682 67.5505 90.8197 67.7355 90.7229C68.4836 90.3242 69.3354 90.1631 70.1775 90.2609C73.037 90.6117 75.9361 90.4512 78.7395 89.7869C79.4716 89.5617 80.2624 89.6273 80.9475 89.9699C81.5018 90.2293 82.0863 90.4187 82.6875 90.5339C82.8264 90.5658 82.968 90.5849 83.1105 90.5909C87.4281 88.9909 91.2033 86.1988 93.9975 82.5389C93.7275 81.4919 93.4635 80.5109 93.2385 79.5209C93.2107 79.2873 93.2514 79.0508 93.3555 78.8399C94.6876 75.692 95.4982 72.3483 95.7555 68.9399C95.7715 68.673 95.8846 68.4211 96.0735 68.2319C97.1336 67.438 98.0361 66.4532 98.7345 65.3279C98.7451 65.3127 98.7583 65.2995 98.7735 65.2889C98.2928 60.9751 96.6574 56.8709 94.0395 53.4089C92.6505 53.0699 91.3785 52.7729 90.1215 52.4429C89.9054 52.3463 89.7122 52.2053 89.5545 52.0289C87.6669 50.359 85.619 48.8798 83.4405 47.6129C82.8225 47.2679 82.1655 46.9949 81.5565 46.6379C81.2985 46.4766 81.0866 46.2513 80.9415 45.9839C80.6895 45.5159 80.4945 45.0149 80.2425 44.4389C79.9665 44.3759 79.6845 44.3129 79.4025 44.2589C75.1122 43.4098 70.6716 43.7479 66.5595 45.2369ZM56.7255 62.8109C56.1255 62.6339 55.9545 62.3309 55.9905 61.7129C56.1225 59.6279 56.1825 57.5399 56.2905 55.4519C56.2902 55.1796 56.3705 54.9134 56.5215 54.6869C58.4535 52.2869 60.6375 50.1719 63.3915 48.7169L63.5475 48.6359C64.4985 48.0779 65.4255 47.8259 66.5475 48.2849C67.9485 48.8549 69.4335 49.2179 70.8885 49.6529C71.1885 49.7429 71.2935 49.8629 71.2665 50.1929C71.0665 52.7489 70.8835 55.3039 70.7175 57.8579C70.7204 58.063 70.6756 58.266 70.5865 58.4508C70.4975 58.6357 70.3667 58.7973 70.2045 58.9229C67.9095 60.6929 65.6355 62.4929 63.3375 64.2599C63.0824 64.4143 62.8052 64.5286 62.5155 64.5989C60.4545 63.9569 58.5975 63.3629 56.7255 62.8109ZM56.5755 80.6129C56.3951 80.539 56.2428 80.4098 56.1405 80.2439C54.0585 77.1779 52.9485 73.7579 52.4655 70.1099C52.4385 69.9148 52.4677 69.716 52.5495 69.5369C53.5665 67.5599 54.5985 65.5889 55.6035 63.6569C57.8055 64.2989 59.9235 64.9109 62.0325 65.5529C62.1444 65.5988 62.246 65.6669 62.331 65.7529C62.4161 65.839 62.4829 65.9414 62.5275 66.0539C63.5955 68.9199 64.6435 71.7899 65.6715 74.6639C65.7598 74.9373 65.7514 75.2329 65.6475 75.5009C64.7085 77.6489 63.7395 79.7849 62.7585 81.9119C62.7059 81.9877 62.6354 82.0493 62.5532 82.0912C62.471 82.1331 62.3797 82.1539 62.2875 82.1519C60.3795 81.6599 58.4755 81.1469 56.5755 80.6129ZM82.7835 82.6889C81.8085 84.6419 80.8635 86.6069 79.8675 88.5479C79.6929 88.7775 79.4397 88.9345 79.1565 88.9889C76.2885 89.7569 73.3695 89.8499 70.4265 89.6219L69.4665 89.5469C69.3069 89.4443 69.159 89.3246 69.0255 89.1899C67.3095 87.1829 65.5935 85.1729 63.9075 83.1419C63.8299 83.0311 63.7783 82.9042 63.7564 82.7708C63.7346 82.6373 63.7432 82.5006 63.7815 82.3709C64.6655 80.3089 65.5805 78.2619 66.5265 76.2299C66.5958 76.1123 66.691 76.012 66.8048 75.9366C66.9187 75.8613 67.0481 75.8128 67.1835 75.7949C70.2295 75.6569 73.2775 75.5479 76.3275 75.4679C76.6499 75.4909 76.952 75.6344 77.1735 75.8699C79.0005 77.8529 80.7945 79.8689 82.6125 81.8699C82.8555 82.1279 82.9545 82.3439 82.7835 82.6889ZM89.4075 62.1419C91.2075 64.1259 92.9935 66.1259 94.7655 68.1419C94.9425 68.3639 95.0293 68.6446 95.0085 68.9279C94.8495 70.3799 94.6395 71.8229 94.4085 73.5179C93.9495 74.8829 93.4095 76.4669 92.8905 78.0569C92.831 78.2869 92.7151 78.4985 92.5532 78.6724C92.3913 78.8463 92.1886 78.9771 91.9635 79.0529C89.6805 79.7939 87.3825 80.4929 85.1145 81.2759C84.1725 81.5999 83.5125 81.4349 82.8585 80.6759C81.2295 78.7769 79.5315 76.9349 77.8815 75.0509C77.8134 74.9511 77.767 74.8381 77.7453 74.7192C77.7236 74.6004 77.7271 74.4783 77.7555 74.3609C78.5975 71.3609 79.4595 68.3669 80.3415 65.3789C80.389 65.2582 80.4602 65.1482 80.5509 65.0555C80.6416 64.9627 80.7499 64.8891 80.8695 64.8389C83.4915 63.8669 86.1235 62.9149 88.7655 61.9829C88.8775 61.9576 88.9938 61.9588 89.1053 61.9864C89.2167 62.014 89.3202 62.0673 89.4075 62.1419ZM81.6525 47.4869C84.4185 48.7919 86.8275 50.6279 89.1315 52.6079C89.2126 52.6855 89.2775 52.7786 89.3223 52.8816C89.3671 52.9846 89.391 53.0955 89.3925 53.2079C89.2725 55.6079 89.1315 58.0079 88.9695 60.4079C88.9486 60.5158 88.903 60.6174 88.8364 60.7048C88.7698 60.7922 88.6839 60.8631 88.5855 60.9119C85.8135 61.9379 83.0355 62.9379 80.2515 63.9119C80.1408 63.9386 80.0258 63.9429 79.9135 63.9243C79.8011 63.9058 79.6937 63.8648 79.5975 63.8039C77.0915 62.1359 74.5915 60.4519 72.0975 58.7519C71.9975 58.6701 71.9162 58.5678 71.8593 58.4518C71.8023 58.3359 71.771 58.209 71.7675 58.0799C71.9055 55.5029 72.0675 52.9289 72.2445 50.3549C72.2655 49.8329 72.5745 49.6769 73.0305 49.5479C75.5325 48.8399 78.0165 48.0839 80.5305 47.3849C80.9053 47.2923 81.3004 47.3282 81.6525 47.4869Z" fill="#17345A"/>
<path fill-rule="evenodd" clip-rule="evenodd" d="M109.858 86.5979C112.155 87.7134 114.376 88.9792 116.506 90.3869L120.526 93.0179L112.216 96.0869L115.975 107.937L110.629 104.937C106.15 102.426 101.701 100.362 96.7512 98.9669C80.8512 94.4669 68.7192 94.4669 52.8072 98.9669C47.8572 100.362 43.4082 102.426 38.9292 104.937L33.5832 107.937L37.3452 96.0869L29.0322 93.0179L33.0552 90.3869C35.1849 88.9798 37.4047 87.7141 39.7002 86.5979L38.3712 83.4329L40.7472 82.5569C51.4632 78.6059 63.3882 76.8569 74.7792 76.8569C86.1702 76.8569 98.0952 78.5969 108.811 82.5569L111.19 83.4329L109.858 86.5979Z" fill="#17345A"/>
<path fill-rule="evenodd" clip-rule="evenodd" d="M115.18 92.4151C112.932 90.9184 110.573 89.5946 108.124 88.4551L104.203 93.8011L107.974 84.8281C98.7344 81.4231 87.2474 79.3711 74.7794 79.2871C62.3113 79.3711 50.8244 81.4231 41.5844 84.8281L45.3553 93.8011L41.4344 88.4551C38.9861 89.5939 36.6283 90.9178 34.3813 92.4151L40.3514 94.6231L37.7473 102.834C47.3863 97.4341 53.3473 95.9941 62.7643 94.4041C55.2793 93.6871 48.0794 95.2081 46.5254 95.5711C54.6434 92.7871 64.3424 91.1341 74.7794 91.0531C85.2164 91.1341 94.9153 92.7871 103.033 95.5711C101.482 95.2081 94.2733 93.6751 86.7943 94.4041C96.2173 95.9941 102.172 97.4251 111.811 102.834L109.207 94.6231L115.18 92.4151Z" fill="white"/>
<path d="M41.5454 93.807L34.3813 92.415L40.3514 94.623L37.7473 102.834C47.3863 97.434 53.3474 95.994 62.7644 94.404C50.2064 94.563 39.4483 100.629 39.4483 100.629L41.5483 93.807H41.5454Z" fill="#D4D5D7"/>
<path d="M115.18 92.415L108.013 93.807L110.113 100.629C110.113 100.629 99.3584 94.563 86.7974 94.404C96.2204 95.994 102.175 97.425 111.814 102.834L109.21 94.623L115.183 92.415H115.18Z" fill="#D4D5D7"/>
<path d="M113.069 53.1152L113.498 51.7333L114.88 51.3047L115.847 51.0046L115.021 50.4191L113.839 49.5816L113.859 48.1353L113.873 47.1221L113.06 47.7274L111.898 48.5932L110.527 48.1284L109.568 47.8029L109.893 48.7625L110.358 50.133L109.492 51.2954L108.887 52.1081L109.9 52.0941L111.346 52.074L112.184 53.2562L112.769 54.0826L113.069 53.1152Z" fill="white" stroke="white"/>
<path d="M93.7072 42.53L93.3287 43.4694L94.3046 43.1986L95.7143 42.8075L96.8431 43.729L97.6166 44.3605L97.6588 43.3628L97.7194 41.9309L98.9533 41.1637L99.8252 40.6216L98.8608 40.2694L97.4867 39.7676L97.1269 38.3777L96.8771 37.4124L96.253 38.1899L95.3449 39.3212L93.8833 39.2254L92.8644 39.1587L93.4364 40.0044L94.2437 41.1982L93.7072 42.53Z" fill="white" stroke="white"/>
<path d="M72.7434 35.3956L72.8901 36.3568L73.5866 35.6783L74.6489 34.6434L76.1489 34.888L77.1639 35.0535L76.6671 34.153L75.9751 32.8985L76.6671 31.644L77.1639 30.7434L76.1489 30.909L74.6483 31.1537L73.5859 30.1226L72.8901 29.4474L72.7434 30.4058L72.5283 31.8113L71.178 32.4459L70.2151 32.8985L71.178 33.351L72.5282 33.9856L72.7434 35.3956Z" fill="white" stroke="white"/>
<path d="M54.1047 43.5795L54.8022 42.2901L56.2228 42.1555L57.2063 42.0624L56.5488 41.325L55.5712 40.2286L55.8911 38.7749L56.1106 37.7772L55.188 38.2159L53.8968 38.8299L52.6713 38.0769L51.7973 37.5398L51.9128 38.5592L52.0807 40.0425L51.0002 41.0269L50.2729 41.6895L51.2368 41.8864L52.6355 42.1721L53.2034 43.5341L53.6065 44.5007L54.1047 43.5795Z" fill="white" stroke="white"/>
<path d="M36.0961 52.3331L35.7707 53.2927L36.7303 52.9672L38.1008 52.5023L39.2632 53.3681L40.0759 53.9734L40.0618 52.9602L40.0418 51.5139L41.2239 50.6764L42.0504 50.0909L41.083 49.7909L39.7011 49.3623L39.2724 47.9803L38.9724 47.0129L38.3869 47.8394L37.5494 49.0215L36.1031 49.0015L35.0899 48.9875L35.6952 49.8001L36.561 50.9625L36.0961 52.3331Z" fill="white" stroke="white"/>
<path d="M46.9619 85.4223C48.5339 85.0503 50.1109 84.7043 51.6929 84.3843L51.8279 85.0653C50.6279 85.3033 49.4349 85.5593 48.2489 85.8333L48.7289 87.9123C49.8089 87.6663 50.8909 87.4333 51.9749 87.2133L52.1099 87.8853C51.0339 88.1073 49.9579 88.3393 48.8819 88.5813C49.0979 89.5233 49.3169 90.4683 49.5329 91.4103L48.4619 91.6623C47.9539 89.5843 47.4539 87.5043 46.9619 85.4223Z" fill="#D1143E" stroke="#D1143E" stroke-width="0.2"/>
<path d="M61.2629 86.04C61.5179 88.14 59.6549 89.607 57.7649 89.94C55.8749 90.273 53.7749 89.361 53.3999 87.387C52.9979 85.26 54.8999 83.64 56.8829 83.37C58.7339 83.112 61.0079 83.949 61.2629 86.04ZM54.5819 87.144C54.8159 88.593 56.3339 89.472 57.7259 89.244C58.0807 89.2022 58.4237 89.0903 58.735 88.9149C59.0463 88.7395 59.3197 88.504 59.5393 88.2222C59.7589 87.9403 59.9204 87.6177 60.0144 87.273C60.1084 86.9283 60.133 86.5683 60.0869 86.214C59.8799 84.663 58.4159 83.814 56.9309 84.027C56.5686 84.0697 56.2188 84.1853 55.9024 84.3669C55.5861 84.5485 55.3098 84.7923 55.0903 85.0836C54.8707 85.3749 54.7125 85.7076 54.6251 86.0618C54.5378 86.4159 54.5231 86.7841 54.5819 87.144Z" fill="#D1143E" stroke="#D1143E" stroke-width="0.2"/>
<path d="M70.1484 85.305C70.2444 87.405 68.2764 88.743 66.3714 88.926C64.4664 89.109 62.4414 88.053 62.2164 86.052C61.9734 83.904 63.9744 82.431 65.9784 82.308C67.8444 82.194 70.0494 83.202 70.1484 85.305ZM63.4074 85.905C63.5334 87.366 64.9794 88.359 66.3804 88.248C66.7375 88.2327 67.0879 88.1466 67.4115 87.9948C67.735 87.8429 68.0252 87.6284 68.2652 87.3636C68.5052 87.0987 68.6903 86.7889 68.8096 86.452C68.9289 86.1151 68.9802 85.7579 68.9604 85.401C68.8704 83.841 67.4604 82.869 65.9784 83.001C65.617 83.0172 65.2625 83.1059 64.936 83.2618C64.6095 83.4177 64.3177 83.6376 64.0779 83.9085C63.8381 84.1794 63.6551 84.4957 63.54 84.8387C63.4248 85.1817 63.3797 85.5443 63.4074 85.905Z" fill="#D1143E" stroke="#D1143E" stroke-width="0.2"/>
<path d="M72.9004 82.7731C72.0004 82.7971 71.1004 82.8271 70.2004 82.8631L70.1704 82.1581C72.3704 82.0681 74.5794 82.0311 76.7974 82.0471C76.7974 82.3291 76.7974 82.4701 76.7974 82.7521C75.8894 82.7521 74.9824 82.7521 74.0764 82.7521C74.1004 84.6561 74.1234 86.5561 74.1454 88.4521L73.0384 88.4731L72.9004 82.7731Z" fill="#D1143E" stroke="#D1143E" stroke-width="0.2"/>
<path d="M77.7745 82.1465C78.4718 82.0713 79.1736 82.0463 79.8745 82.0715C80.7207 82.0504 81.5579 82.2488 82.3045 82.6475C82.5169 82.7592 82.6929 82.9292 82.812 83.1376C82.931 83.3459 82.9881 83.5839 82.9765 83.8235C82.9255 84.5315 82.0465 85.0745 81.4135 85.1495V85.1675C82.2445 85.3535 83.1505 85.9355 83.1085 86.8775C83.0881 87.1346 83.0038 87.3825 82.8635 87.5989C82.7231 87.8152 82.531 87.9931 82.3045 88.1165C81.4435 88.6325 80.3275 88.5965 79.3405 88.5815C78.7738 88.5721 78.2079 88.5321 77.6455 88.4615L77.7745 82.1465ZM78.8545 84.8015L79.8805 84.8345C80.5735 84.8855 81.7735 84.6785 81.8305 83.8445C81.8935 82.9445 80.6305 82.7195 79.9315 82.7105C79.5913 82.6984 79.2507 82.7064 78.9115 82.7345C78.8995 83.5625 78.8785 83.9735 78.8545 84.8015ZM78.7675 87.8765C79.074 87.9169 79.3825 87.9399 79.6915 87.9455C80.5345 87.9755 81.8965 87.7955 81.9445 86.7965C81.9925 85.7975 80.6065 85.4915 79.7665 85.4585L78.8365 85.4285L78.7675 87.8765Z" fill="#D1143E" stroke="#D1143E" stroke-width="0.2"/>
<path d="M86.0151 86.9069C85.6581 87.5489 85.3071 88.1969 84.9591 88.8449C84.5091 88.8059 84.2841 88.7909 83.8311 88.7579C84.9531 86.6839 86.1151 84.6339 87.3171 82.6079C87.8721 82.6619 88.1481 82.6919 88.7031 82.7519C89.4711 84.9799 90.1971 87.2229 90.8811 89.4809C90.4161 89.4179 90.1851 89.3879 89.7201 89.3309C89.5041 88.6249 89.2821 87.9249 89.0541 87.2309C88.0441 87.1069 87.0311 86.9989 86.0151 86.9069ZM88.8981 86.5499C88.6431 85.7759 88.5141 85.3889 88.2501 84.6179C88.1001 84.1799 88.0071 83.7899 87.9141 83.4179H87.8991C87.7281 83.7839 87.5451 84.1589 87.3381 84.5309C86.9211 85.2359 86.7171 85.5899 86.3121 86.2979C87.1701 86.3669 88.034 86.4539 88.8981 86.5499Z" fill="#D1143E" stroke="#D1143E" stroke-width="0.2"/>
<path d="M93.0327 83.2979L94.1758 83.4689L93.2997 89.1268C94.4997 89.3128 95.6997 89.5138 96.8997 89.7268L96.7708 90.4108C95.2228 90.1288 93.6707 89.8719 92.1147 89.6399L93.0327 83.2979Z" fill="#D1143E" stroke="#D1143E" stroke-width="0.2"/>
<path d="M99.2161 84.354C99.6691 84.444 99.8971 84.489 100.35 84.585L99.1891 90.189C100.389 90.439 101.579 90.705 102.759 90.987C102.693 91.257 102.66 91.392 102.597 91.662C101.061 91.302 99.5201 90.966 97.9741 90.654L99.2161 84.354Z" fill="#D1143E" stroke="#D1143E" stroke-width="0.2"/>
</svg>
