<svg width="185" height="185" viewBox="0 0 185 185" fill="none" xmlns="http://www.w3.org/2000/svg">
<path d="M138.108 75.909C137.64 93.3734 133.278 110.513 125.341 126.076C117.403 141.64 106.09 155.234 92.2281 165.867C78.3659 155.234 67.053 141.64 59.1155 126.076C51.1779 110.513 46.816 93.3734 46.3481 75.909C60.8703 69.775 76.4748 66.6146 92.2392 66.6146C108.004 66.6146 123.608 69.775 138.13 75.909H138.108Z" fill="white"/>
<path d="M92.228 159.755C80.4809 150.057 70.7939 138.105 63.738 124.605C56.3788 110.499 52.127 94.9812 51.269 79.0947C77.6201 68.8682 106.843 68.8682 133.194 79.0947C132.336 94.9812 128.085 110.499 120.725 124.605C113.667 138.106 103.978 150.057 92.228 159.755Z" fill="#17345A"/>
<path d="M92.2282 156.173C81.54 146.969 72.6959 135.819 66.1654 123.317C59.2947 110.156 55.1946 95.7263 54.1182 80.9188C78.7152 71.8907 105.719 71.8907 130.316 80.9188C129.245 95.7245 125.153 110.154 118.291 123.317C111.76 135.819 102.916 146.969 92.2282 156.173Z" fill="white"/>
<path d="M117.066 119.676C116.677 120.479 116.274 121.275 115.863 122.07C109.856 133.545 101.852 143.857 92.2278 152.525C82.6034 143.857 74.5999 133.545 68.5921 122.07C68.1814 121.275 67.7781 120.479 67.3896 119.676H117.066Z" fill="#17345A"/>
<path d="M83.7661 139.242L82.2158 140.056L82.5118 138.332L81.2612 137.114L82.9891 136.863L83.7661 135.294L84.5394 136.863L86.2673 137.114L85.0167 138.332L85.3127 140.056L83.7661 139.242Z" fill="white"/>
<path d="M100.693 139.242L99.1431 140.056L99.4391 138.332L98.1885 137.114L99.9201 136.863L100.693 135.294L101.463 136.863L103.195 137.114L101.944 138.332L102.24 140.056L100.693 139.242Z" fill="white"/>
<path d="M92.2278 144.781L90.6812 145.595L90.9772 143.871L89.7266 142.653L91.4545 142.402L92.2278 140.833L93.0011 142.402L94.729 142.653L93.4784 143.871L93.7744 145.595L92.2278 144.781Z" fill="white"/>
<path d="M97.0462 113.894C113.331 111.262 124.4 95.9269 121.768 79.6416C119.136 63.3563 103.8 52.2881 87.515 54.9201C71.2297 57.552 60.1615 72.8875 62.7934 89.1728C65.4254 105.458 80.7609 116.526 97.0462 113.894Z" fill="white"/>
<path d="M122.442 89.71C121.272 95.6862 118.357 101.181 114.064 105.5C109.771 109.819 104.294 112.768 98.325 113.974C92.3561 115.18 86.1637 114.589 80.5307 112.276C74.8978 109.962 70.0775 106.03 66.6794 100.977C63.2812 95.9236 61.4579 89.9762 61.4401 83.8867C61.4222 77.7972 63.2106 71.8392 66.579 66.7661C69.9474 61.6931 74.7446 57.7329 80.3638 55.3863C85.9831 53.0398 92.172 52.4123 98.1479 53.5832C106.156 55.1604 113.211 59.8499 117.766 66.6228C122.32 73.3956 124.002 81.6987 122.442 89.71ZM63.9821 78.2771C62.8892 83.8639 63.4775 89.6493 65.6727 94.9018C67.8679 100.154 71.5714 104.638 76.3148 107.785C81.0582 110.933 86.6284 112.603 92.3211 112.585C98.0138 112.567 103.573 110.861 108.296 107.683C113.02 104.505 116.694 99.9978 118.856 94.7314C121.017 89.465 121.569 83.6759 120.44 78.0962C119.311 72.5165 116.553 67.3968 112.515 63.3846C108.476 59.3723 103.339 56.6477 97.752 55.5553C90.2617 54.0998 82.4999 55.6745 76.1692 59.9341C69.8384 64.1937 65.4556 70.7903 63.9821 78.2771Z" fill="#17345A"/>
<g opacity="0.3">
<path fill-rule="evenodd" clip-rule="evenodd" d="M109.77 87.231C108.644 93.0081 105.985 98.3759 102.071 102.772C98.1574 107.168 93.1333 110.43 87.5254 112.217C94.9338 113.48 102.542 111.797 108.727 107.526C114.911 103.256 119.18 96.7364 120.623 89.3609C122.065 81.9854 120.567 74.338 116.448 68.0521C112.329 61.7661 105.916 57.3397 98.5773 55.7181C103.097 59.4846 106.521 64.3973 108.49 69.9415C110.459 75.4857 110.901 81.4574 109.77 87.231Z" fill="#676767"/>
</g>
<path fill-rule="evenodd" clip-rule="evenodd" d="M82.0902 55.7922C81.6581 56.5003 81.1627 57.1678 80.6102 57.7865C80.4005 58.0195 80.1396 58.2006 79.8479 58.3156C76.0777 59.7697 73.0881 62.2783 70.3649 65.1902C69.414 66.2151 68.2929 67.0772 67.2606 68.0318C66.9996 68.2637 66.7525 68.5108 66.5206 68.7718C64.83 71.6554 63.639 74.8041 62.9982 78.0847C62.6361 79.934 62.449 81.8132 62.4395 83.6976C62.5441 84.6091 62.9504 85.4596 63.5939 86.1137C63.827 86.3542 63.8492 86.8537 63.9047 87.2237C64.5004 91.1309 65.6177 94.879 67.749 98.2275C68.5733 99.5677 69.1499 101.045 69.451 102.59C69.5211 102.889 69.6466 103.173 69.821 103.426C73.2992 107.412 77.7807 110.395 82.8006 112.065C83.0579 112.071 83.3125 112.011 83.5406 111.892C84.4632 111.4 85.5138 111.201 86.5524 111.322C90.0791 111.754 93.6547 111.556 97.1122 110.737C98.0152 110.46 98.9904 110.54 99.8354 110.963C100.519 111.283 101.24 111.517 101.981 111.658C102.153 111.698 102.327 111.721 102.503 111.729C107.828 109.755 112.484 106.312 115.93 101.798C115.597 100.507 115.272 99.2968 114.994 98.0758C114.96 97.7878 115.01 97.496 115.139 97.2359C116.782 93.3536 117.781 89.2296 118.099 85.0259C118.118 84.6967 118.258 84.3861 118.491 84.1527C119.798 83.1736 120.911 81.9589 121.773 80.5711C121.786 80.5524 121.802 80.5361 121.821 80.523C121.228 75.2027 119.211 70.1409 115.982 65.871C114.269 65.4529 112.7 65.0866 111.15 64.6796C110.884 64.5605 110.645 64.3865 110.451 64.169C108.123 62.1095 105.597 60.2852 102.91 58.7226C102.148 58.2971 101.338 57.9604 100.586 57.5201C100.268 57.3211 100.007 57.0433 99.828 56.7135C99.5172 56.1363 99.2766 55.5184 98.9659 54.808C98.6255 54.7303 98.2777 54.6526 97.9299 54.586C92.6386 53.5388 87.1618 53.9558 82.0902 55.7922ZM69.9616 77.4668C69.2216 77.2485 69.0106 76.8748 69.055 76.1126C69.2178 73.5411 69.2919 70.9659 69.425 68.3907C69.4247 68.0549 69.5238 67.7266 69.71 67.4472C72.0928 64.4872 74.7863 61.8787 78.183 60.0842L78.3754 59.9843C79.5483 59.2961 80.6916 58.9853 82.0754 59.5514C83.8033 60.2544 85.6348 60.7021 87.4293 61.2386C87.7993 61.3496 87.9288 61.4976 87.8955 61.9046C87.6488 65.057 87.4231 68.2082 87.2184 71.3581C87.222 71.6111 87.1667 71.8615 87.0569 72.0894C86.9471 72.3174 86.7857 72.5167 86.5857 72.6716C83.7552 74.8546 80.9506 77.0746 78.1164 79.2539C77.8018 79.4443 77.4599 79.5853 77.1026 79.672C74.5607 78.8802 72.2704 78.1476 69.9616 77.4668ZM69.7766 99.4226C69.5541 99.3315 69.3662 99.1721 69.24 98.9675C66.6722 95.1861 65.3032 90.9681 64.7075 86.4689C64.6743 86.2283 64.7103 85.9832 64.8111 85.7622C66.0654 83.3239 67.3383 80.893 68.5778 78.5102C71.2936 79.302 73.9058 80.0568 76.5069 80.8486C76.6449 80.9052 76.7702 80.9892 76.8751 81.0953C76.98 81.2015 77.0624 81.3277 77.1174 81.4665C78.4346 85.0012 79.7271 88.5409 80.995 92.0855C81.104 92.4228 81.0935 92.7873 80.9654 93.1178C79.8073 95.767 78.6122 98.4014 77.4022 101.025C77.3374 101.118 77.2505 101.194 77.1491 101.246C77.0477 101.297 76.9351 101.323 76.8214 101.321C74.4682 100.714 72.1199 100.081 69.7766 99.4226ZM102.1 101.983C100.897 104.392 99.7318 106.815 98.5034 109.209C98.2881 109.492 97.9758 109.686 97.6265 109.753C94.0893 110.7 90.4892 110.815 86.8595 110.534L85.6755 110.441C85.4786 110.315 85.2963 110.167 85.1316 110.001C83.0152 107.526 80.8988 105.047 78.8194 102.542C78.7237 102.405 78.66 102.249 78.6331 102.084C78.6062 101.919 78.6167 101.751 78.664 101.591C79.7542 99.0477 80.8827 96.523 82.0495 94.0169C82.135 93.8719 82.2524 93.7482 82.3928 93.6552C82.5332 93.5623 82.6928 93.5025 82.8598 93.4804C86.6165 93.3102 90.3757 93.1758 94.1374 93.0771C94.5351 93.1054 94.9076 93.2824 95.1808 93.5729C97.4341 96.0186 99.6466 98.505 101.889 100.973C102.189 101.291 102.311 101.557 102.1 101.983ZM110.269 76.6417C112.489 79.0886 114.692 81.5553 116.878 84.0417C117.096 84.3156 117.203 84.6617 117.177 85.0111C116.981 86.8019 116.722 88.5816 116.437 90.6721C115.871 92.3556 115.205 94.3092 114.565 96.2702C114.492 96.5539 114.349 96.8148 114.149 97.0293C113.949 97.2438 113.699 97.4051 113.422 97.4986C110.606 98.4125 107.772 99.2746 104.975 100.24C103.813 100.64 102.999 100.436 102.192 99.5003C100.183 97.1582 98.089 94.8864 96.054 92.5628C95.97 92.4397 95.9128 92.3003 95.886 92.1538C95.8592 92.0072 95.8635 91.8566 95.8986 91.7118C96.937 88.0118 98.0002 84.3192 99.088 80.634C99.1466 80.4851 99.2344 80.3495 99.3462 80.2352C99.4581 80.1208 99.5917 80.0299 99.7392 79.968C102.973 78.7692 106.219 77.5951 109.478 76.4456C109.616 76.4144 109.759 76.4159 109.897 76.45C110.034 76.484 110.162 76.5497 110.269 76.6417ZM100.705 58.5672C104.116 60.1767 107.087 62.4411 109.929 64.8831C110.029 64.9789 110.109 65.0936 110.164 65.2207C110.22 65.3478 110.249 65.4845 110.251 65.6231C110.103 68.5831 109.929 71.5431 109.729 74.5031C109.703 74.6362 109.647 74.7615 109.565 74.8693C109.483 74.9771 109.377 75.0645 109.256 75.1247C105.837 76.3901 102.411 77.6234 98.977 78.8247C98.8404 78.8577 98.6987 78.8629 98.5601 78.8401C98.4215 78.8172 98.289 78.7666 98.1704 78.6915C95.0796 76.6343 91.9963 74.5574 88.9204 72.4607C88.797 72.3598 88.6968 72.2336 88.6266 72.0906C88.5564 71.9476 88.5177 71.7911 88.5134 71.6319C88.6836 68.4536 88.8834 65.279 89.1017 62.1044C89.1276 61.4606 89.5087 61.2682 90.0711 61.1091C93.1569 60.2359 96.2205 59.3035 99.3211 58.4414C99.7834 58.3273 100.271 58.3716 100.705 58.5672Z" fill="#17345A"/>
<path fill-rule="evenodd" clip-rule="evenodd" d="M135.492 106.804C138.325 108.18 141.064 109.741 143.691 111.477L148.649 114.722L138.4 118.507L143.036 133.122L136.443 129.422C130.919 126.325 125.432 123.78 119.327 122.059C99.7167 116.509 84.7539 116.509 65.1291 122.059C59.0241 123.78 53.537 126.325 48.0129 129.422L41.4195 133.122L46.0593 118.507L35.8066 114.722L40.7683 111.477C43.3949 109.742 46.1327 108.181 48.9638 106.804L47.3247 102.901L50.2551 101.82C63.4715 96.9473 78.179 94.7902 92.2279 94.7902C106.277 94.7902 120.984 96.9362 134.201 101.82L137.135 102.901L135.492 106.804Z" fill="#17345A"/>
<path fill-rule="evenodd" clip-rule="evenodd" d="M142.056 113.978C139.283 112.132 136.374 110.5 133.354 109.094L128.518 115.688L133.169 104.621C121.773 100.422 107.605 97.8907 92.228 97.7871C76.8508 97.8907 62.6835 100.422 51.2875 104.621L55.9384 115.688L51.1025 109.094C48.083 110.499 45.175 112.132 42.4038 113.978L49.7668 116.702L46.5552 126.828C58.4433 120.168 65.7952 118.392 77.4095 116.431C68.178 115.547 59.298 117.423 57.3814 117.871C67.3936 114.437 79.3557 112.398 92.228 112.299C105.1 112.398 117.062 114.437 127.075 117.871C125.162 117.423 116.271 115.532 107.047 116.431C118.668 118.392 126.013 120.157 137.901 126.828L134.689 116.702L142.056 113.978Z" fill="white"/>
<path d="M51.2394 115.695L42.4038 113.978L49.7668 116.702L46.5552 126.828C58.4433 120.168 65.7952 118.392 77.4095 116.431C61.9213 116.628 48.6531 124.109 48.6531 124.109L51.2431 115.695H51.2394Z" fill="#D4D5D7"/>
<path d="M142.056 113.978L133.217 115.695L135.807 124.109C135.807 124.109 122.542 116.628 107.05 116.431C118.672 118.392 126.016 120.157 137.905 126.828L134.693 116.702L142.06 113.978H142.056Z" fill="#D4D5D7"/>
<path d="M139.341 65.4743L139.888 63.7112L141.651 63.1643L142.618 62.8643L141.792 62.2788L140.284 61.2104L140.309 59.3653L140.323 58.3521L139.511 58.9574L138.028 60.0618L136.28 59.4688L135.32 59.1434L135.646 60.1029L136.239 61.8513L135.134 63.3341L134.529 64.1467L135.542 64.1327L137.387 64.1071L138.456 65.6152L139.041 66.4416L139.341 65.4743Z" fill="white" stroke="white"/>
<path d="M115.68 52.4971L115.302 53.4366L116.278 53.1658L118.075 52.6672L119.514 53.8419L120.287 54.4734L120.329 53.4757L120.407 51.6481L121.981 50.6693L122.853 50.1272L121.888 49.7751L120.136 49.1351L119.677 47.3615L119.427 46.3963L118.803 47.1738L117.645 48.6164L115.782 48.4943L114.763 48.4276L115.335 49.2733L116.365 50.797L115.68 52.4971Z" fill="white" stroke="white"/>
<path d="M89.8321 43.6369L89.9788 44.5982L90.6753 43.9196L92.0276 42.6022L93.9356 42.9133L94.9507 43.0788L94.4539 42.1783L93.5693 40.5747L94.4539 38.9712L94.9507 38.0706L93.9356 38.2362L92.027 38.5474L90.6746 37.2349L89.9788 36.5597L89.8321 37.5181L89.5574 39.3131L87.8357 40.1222L86.8728 40.5747L87.8357 41.0273L89.5573 41.8364L89.8321 43.6369Z" fill="white" stroke="white"/>
<path d="M66.6269 53.6924L67.5167 52.0473L69.3308 51.8756L70.3143 51.7824L69.6569 51.045L68.4115 49.6483L68.8188 47.7972L69.0383 46.7994L68.1157 47.2382L66.466 48.0227L64.9006 47.0608L64.0266 46.5237L64.142 47.5431L64.3559 49.4317L62.9792 50.6859L62.2519 51.3485L63.2159 51.5454L65.0014 51.9101L65.7256 53.647L66.1287 54.6136L66.6269 53.6924Z" fill="white" stroke="white"/>
<path d="M44.6295 64.5816L44.304 65.5412L45.2636 65.2157L47.0119 64.6227L48.4947 65.7271L49.3074 66.3324L49.2934 65.3192L49.2678 63.4741L50.7758 62.4057L51.6023 61.8202L50.6349 61.5202L48.8718 60.9734L48.325 59.2103L48.025 58.2429L47.4394 59.0694L46.371 60.5774L44.526 60.5518L43.5128 60.5378L44.118 61.3505L45.2225 62.8333L44.6295 64.5816Z" fill="white" stroke="white"/>
<path d="M57.9199 105.354C59.8587 104.895 61.8037 104.469 63.7548 104.074L63.9213 104.914C62.4413 105.207 60.97 105.523 59.5072 105.861L60.0992 108.425C61.4312 108.122 62.7657 107.834 64.1026 107.563L64.2691 108.392C62.9421 108.666 61.615 108.952 60.2879 109.25C60.5543 110.412 60.8244 111.577 61.0908 112.739L59.7699 113.05C59.1434 110.487 58.5267 107.922 57.9199 105.354Z" fill="#D1143E" stroke="#D1143E" stroke-width="0.2"/>
<path d="M75.558 106.116C75.8725 108.706 73.5748 110.515 71.2438 110.926C68.9128 111.337 66.3228 110.212 65.8603 107.777C65.3645 105.154 67.7103 103.156 70.156 102.823C72.4389 102.505 75.2435 103.537 75.558 106.116ZM67.3181 107.477C67.6067 109.265 69.4789 110.349 71.1957 110.067C71.6333 110.016 72.0564 109.878 72.4403 109.662C72.8242 109.445 73.1613 109.155 73.4322 108.807C73.703 108.46 73.9022 108.062 74.0181 107.637C74.1341 107.211 74.1645 106.767 74.1076 106.33C73.8523 104.418 72.0467 103.37 70.2152 103.633C69.7684 103.686 69.3369 103.828 68.9467 104.052C68.5566 104.276 68.2158 104.577 67.9451 104.936C67.6743 105.295 67.4792 105.706 67.3714 106.143C67.2637 106.579 67.2455 107.034 67.3181 107.477Z" fill="#D1143E" stroke="#D1143E" stroke-width="0.2"/>
<path d="M86.5166 105.209C86.635 107.799 84.2078 109.45 81.8583 109.675C79.5088 109.901 77.0113 108.599 76.7338 106.131C76.4341 103.481 78.902 101.665 81.3736 101.513C83.675 101.372 86.3945 102.616 86.5166 105.209ZM78.2027 105.949C78.3581 107.751 80.1415 108.976 81.8694 108.839C82.3098 108.82 82.742 108.714 83.1411 108.527C83.5401 108.339 83.898 108.075 84.194 107.748C84.49 107.422 84.7182 107.039 84.8654 106.624C85.0126 106.208 85.0758 105.768 85.0514 105.328C84.9404 103.404 83.2014 102.205 81.3736 102.368C80.9278 102.388 80.4906 102.497 80.088 102.689C79.6853 102.882 79.3254 103.153 79.0296 103.487C78.7339 103.821 78.5082 104.211 78.3662 104.634C78.2241 105.057 78.1685 105.504 78.2027 105.949Z" fill="#D1143E" stroke="#D1143E" stroke-width="0.2"/>
<path d="M89.9105 102.087C88.8005 102.116 87.6905 102.153 86.5805 102.198L86.5435 101.328C89.2568 101.217 91.9812 101.172 94.7168 101.191C94.7168 101.539 94.7168 101.713 94.7168 102.061C93.5969 102.061 92.4783 102.061 91.3609 102.061C91.3905 104.409 91.4188 106.752 91.446 109.091L90.0807 109.117L89.9105 102.087Z" fill="#D1143E" stroke="#D1143E" stroke-width="0.2"/>
<path d="M95.9223 101.314C96.7823 101.221 97.6478 101.19 98.5123 101.221C99.5559 101.195 100.588 101.44 101.509 101.932C101.771 102.069 101.988 102.279 102.135 102.536C102.282 102.793 102.352 103.086 102.338 103.382C102.275 104.255 101.191 104.925 100.41 105.017V105.04C101.435 105.269 102.553 105.987 102.501 107.149C102.476 107.466 102.372 107.771 102.199 108.038C102.026 108.305 101.789 108.525 101.509 108.677C100.447 109.313 99.071 109.269 97.8537 109.25C97.1547 109.239 96.4568 109.189 95.7632 109.102L95.9223 101.314ZM97.2543 104.588L98.5197 104.629C99.3744 104.692 100.854 104.437 100.925 103.408C101.002 102.298 99.4447 102.02 98.5826 102.009C98.163 101.994 97.743 102.004 97.3246 102.039C97.3098 103.06 97.2839 103.567 97.2543 104.588ZM97.147 108.381C97.5249 108.43 97.9054 108.459 98.2866 108.466C99.3263 108.503 101.006 108.281 101.065 107.049C101.124 105.817 99.4151 105.439 98.3791 105.399L97.2321 105.362L97.147 108.381Z" fill="#D1143E" stroke="#D1143E" stroke-width="0.2"/>
<path d="M106.086 107.185C105.645 107.977 105.212 108.776 104.783 109.576C104.228 109.527 103.951 109.509 103.392 109.468C104.776 106.91 106.209 104.382 107.691 101.883C108.376 101.95 108.716 101.987 109.401 102.061C110.348 104.809 111.243 107.575 112.087 110.36C111.514 110.282 111.229 110.245 110.655 110.175C110.389 109.304 110.115 108.441 109.834 107.585C108.588 107.432 107.339 107.299 106.086 107.185ZM109.641 106.745C109.327 105.791 109.168 105.313 108.842 104.362C108.657 103.822 108.542 103.341 108.428 102.882H108.409C108.198 103.334 107.973 103.796 107.717 104.255C107.203 105.124 106.951 105.561 106.452 106.434C107.51 106.519 108.576 106.627 109.641 106.745Z" fill="#D1143E" stroke="#D1143E" stroke-width="0.2"/>
<path d="M114.741 102.734L116.15 102.945L115.07 109.923C116.55 110.153 118.03 110.401 119.51 110.663L119.351 111.507C117.442 111.159 115.527 110.842 113.608 110.556L114.741 102.734Z" fill="#D1143E" stroke="#D1143E" stroke-width="0.2"/>
<path d="M122.367 104.037C122.925 104.148 123.207 104.203 123.765 104.322L122.333 111.233C123.813 111.542 125.281 111.87 126.736 112.217C126.655 112.55 126.614 112.717 126.537 113.05C124.642 112.606 122.742 112.192 120.835 111.807L122.367 104.037Z" fill="#D1143E" stroke="#D1143E" stroke-width="0.2"/>
</svg>
