<svg width="127" height="38" viewBox="0 0 127 38" fill="none" xmlns="http://www.w3.org/2000/svg">
<path d="M1 4H126.5L123.343 34H0L1 4Z" fill="#D1143E"/>
<path d="M25.4553 27V12.42H28.6233C29.7033 12.42 30.5553 12.588 31.1793 12.924C31.8153 13.248 32.2653 13.74 32.5293 14.4C32.8053 15.06 32.9433 15.882 32.9433 16.866V22.23C32.9433 23.262 32.8053 24.132 32.5293 24.84C32.2653 25.548 31.8273 26.088 31.2153 26.46C30.6153 26.82 29.8053 27 28.7853 27H25.4553ZM27.4893 25.542H28.6413C29.3853 25.542 29.9133 25.398 30.2253 25.11C30.5373 24.822 30.7233 24.402 30.7833 23.85C30.8553 23.298 30.8913 22.632 30.8913 21.852V17.118C30.8913 16.362 30.8433 15.75 30.7473 15.282C30.6513 14.814 30.4413 14.472 30.1173 14.256C29.7933 14.04 29.2833 13.932 28.5873 13.932H27.4893V25.542ZM35.9475 27V12.42H41.5995V13.932H37.9815V18.756H40.9155V20.196H37.9815V25.542H41.6355V27H35.9475ZM44.2776 27V12.42H49.9116V13.878H46.3116V18.738H49.1016V20.178H46.3116V27H44.2776ZM52.3088 27V12.42H57.9608V13.932H54.3428V18.756H57.2768V20.196H54.3428V25.542H57.9968V27H52.3088ZM60.6389 27V12.42H62.0249L66.1649 22.104V12.42H67.8569V27H66.5609L62.3669 17.046V27H60.6389ZM71.1486 27V12.42H74.3166C75.3966 12.42 76.2486 12.588 76.8726 12.924C77.5086 13.248 77.9586 13.74 78.2226 14.4C78.4986 15.06 78.6366 15.882 78.6366 16.866V22.23C78.6366 23.262 78.4986 24.132 78.2226 24.84C77.9586 25.548 77.5206 26.088 76.9086 26.46C76.3086 26.82 75.4986 27 74.4786 27H71.1486ZM73.1826 25.542H74.3346C75.0786 25.542 75.6066 25.398 75.9186 25.11C76.2306 24.822 76.4166 24.402 76.4766 23.85C76.5486 23.298 76.5846 22.632 76.5846 21.852V17.118C76.5846 16.362 76.5366 15.75 76.4406 15.282C76.3446 14.814 76.1346 14.472 75.8106 14.256C75.4866 14.04 74.9766 13.932 74.2806 13.932H73.1826V25.542ZM81.6408 27V12.42H87.2928V13.932H83.6748V18.756H86.6088V20.196H83.6748V25.542H87.3288V27H81.6408ZM89.9709 27V12.42H92.9049C93.8769 12.42 94.6809 12.552 95.3169 12.816C95.9529 13.068 96.4209 13.482 96.7209 14.058C97.0329 14.622 97.1889 15.366 97.1889 16.29C97.1889 16.854 97.1289 17.37 97.0089 17.838C96.8889 18.294 96.6969 18.684 96.4329 19.008C96.1689 19.32 95.8209 19.548 95.3889 19.692L97.4589 27H95.4969L93.5889 20.16H92.0049V27H89.9709ZM92.0049 18.702H92.7789C93.3549 18.702 93.8229 18.63 94.1829 18.486C94.5429 18.342 94.8069 18.096 94.9749 17.748C95.1429 17.4 95.2269 16.914 95.2269 16.29C95.2269 15.438 95.0709 14.826 94.7589 14.454C94.4469 14.07 93.8289 13.878 92.9049 13.878H92.0049V18.702ZM103.743 27.162C102.903 27.162 102.201 26.982 101.637 26.622C101.085 26.262 100.665 25.764 100.377 25.128C100.089 24.492 99.9209 23.754 99.8729 22.914L101.673 22.428C101.709 22.944 101.787 23.442 101.907 23.922C102.039 24.402 102.249 24.798 102.537 25.11C102.825 25.41 103.227 25.56 103.743 25.56C104.271 25.56 104.667 25.416 104.931 25.128C105.207 24.828 105.345 24.402 105.345 23.85C105.345 23.19 105.195 22.662 104.895 22.266C104.595 21.858 104.217 21.45 103.761 21.042L101.313 18.882C100.833 18.462 100.479 18.006 100.251 17.514C100.023 17.01 99.9089 16.392 99.9089 15.66C99.9089 14.592 100.215 13.764 100.827 13.176C101.439 12.588 102.273 12.294 103.329 12.294C103.905 12.294 104.409 12.372 104.841 12.528C105.285 12.672 105.651 12.9 105.939 13.212C106.239 13.524 106.473 13.92 106.641 14.4C106.821 14.868 106.941 15.42 107.001 16.056L105.273 16.524C105.237 16.044 105.165 15.606 105.057 15.21C104.949 14.802 104.757 14.478 104.481 14.238C104.217 13.986 103.833 13.86 103.329 13.86C102.825 13.86 102.429 13.998 102.141 14.274C101.865 14.538 101.727 14.934 101.727 15.462C101.727 15.906 101.799 16.272 101.943 16.56C102.099 16.848 102.345 17.142 102.681 17.442L105.147 19.602C105.699 20.082 106.185 20.658 106.605 21.33C107.025 21.99 107.235 22.776 107.235 23.688C107.235 24.408 107.085 25.032 106.785 25.56C106.485 26.076 106.071 26.472 105.543 26.748C105.027 27.024 104.427 27.162 103.743 27.162Z" fill="white"/>
<path d="M6 0L1 4H6V0Z" fill="#FF3F69"/>
<path d="M5 38L0 34H5V38Z" fill="#FF3F69"/>
</svg>
