<svg width="127" height="38" viewBox="0 0 127 38" fill="none" xmlns="http://www.w3.org/2000/svg">
<path d="M1 4H126.5L123.343 34H0L1 4Z" fill="#D1143E"/>
<path d="M15.3558 27L15.6258 12.42H17.6238L20.1978 24.246L22.7898 12.42H24.7698L25.0398 27H23.4018L23.2398 16.416L20.7738 27H19.6218L17.1738 16.416L17.0118 27H15.3558ZM28.3826 27V12.42H30.3806V27H28.3826ZM33.7395 27V12.42H36.9075C37.9875 12.42 38.8395 12.588 39.4635 12.924C40.0995 13.248 40.5495 13.74 40.8135 14.4C41.0895 15.06 41.2275 15.882 41.2275 16.866V22.23C41.2275 23.262 41.0895 24.132 40.8135 24.84C40.5495 25.548 40.1115 26.088 39.4995 26.46C38.8995 26.82 38.0895 27 37.0695 27H33.7395ZM35.7735 25.542H36.9255C37.6695 25.542 38.1975 25.398 38.5095 25.11C38.8215 24.822 39.0075 24.402 39.0675 23.85C39.1395 23.298 39.1755 22.632 39.1755 21.852V17.118C39.1755 16.362 39.1275 15.75 39.0315 15.282C38.9355 14.814 38.7255 14.472 38.4015 14.256C38.0775 14.04 37.5675 13.932 36.8715 13.932H35.7735V25.542ZM44.2317 27V12.42H49.8657V13.878H46.2657V18.738H49.0557V20.178H46.2657V27H44.2317ZM52.3709 27V12.42H54.3689V27H52.3709ZM57.7278 27V12.42H63.3798V13.932H59.7618V18.756H62.6958V20.196H59.7618V25.542H63.4158V27H57.7278ZM66.0578 27V12.42H68.0918V25.542H71.8178V27H66.0578ZM74.2121 27V12.42H77.3801C78.4601 12.42 79.3121 12.588 79.9361 12.924C80.5721 13.248 81.0221 13.74 81.2861 14.4C81.5621 15.06 81.7001 15.882 81.7001 16.866V22.23C81.7001 23.262 81.5621 24.132 81.2861 24.84C81.0221 25.548 80.5841 26.088 79.9721 26.46C79.3721 26.82 78.5621 27 77.5421 27H74.2121ZM76.2461 25.542H77.3981C78.1421 25.542 78.6701 25.398 78.9821 25.11C79.2941 24.822 79.4801 24.402 79.5401 23.85C79.6121 23.298 79.6481 22.632 79.6481 21.852V17.118C79.6481 16.362 79.6001 15.75 79.5041 15.282C79.4081 14.814 79.1981 14.472 78.8741 14.256C78.5501 14.04 78.0401 13.932 77.3441 13.932H76.2461V25.542ZM84.7043 27V12.42H90.3563V13.932H86.7383V18.756H89.6723V20.196H86.7383V25.542H90.3923V27H84.7043ZM93.0344 27V12.42H95.9684C96.9404 12.42 97.7444 12.552 98.3804 12.816C99.0164 13.068 99.4844 13.482 99.7844 14.058C100.096 14.622 100.252 15.366 100.252 16.29C100.252 16.854 100.192 17.37 100.072 17.838C99.9524 18.294 99.7604 18.684 99.4964 19.008C99.2324 19.32 98.8844 19.548 98.4524 19.692L100.522 27H98.5604L96.6524 20.16H95.0684V27H93.0344ZM95.0684 18.702H95.8424C96.4184 18.702 96.8864 18.63 97.2464 18.486C97.6064 18.342 97.8704 18.096 98.0384 17.748C98.2064 17.4 98.2904 16.914 98.2904 16.29C98.2904 15.438 98.1344 14.826 97.8224 14.454C97.5104 14.07 96.8924 13.878 95.9684 13.878H95.0684V18.702ZM106.806 27.162C105.966 27.162 105.264 26.982 104.7 26.622C104.148 26.262 103.728 25.764 103.44 25.128C103.152 24.492 102.984 23.754 102.936 22.914L104.736 22.428C104.772 22.944 104.85 23.442 104.97 23.922C105.102 24.402 105.312 24.798 105.6 25.11C105.888 25.41 106.29 25.56 106.806 25.56C107.334 25.56 107.73 25.416 107.994 25.128C108.27 24.828 108.408 24.402 108.408 23.85C108.408 23.19 108.258 22.662 107.958 22.266C107.658 21.858 107.28 21.45 106.824 21.042L104.376 18.882C103.896 18.462 103.542 18.006 103.314 17.514C103.086 17.01 102.972 16.392 102.972 15.66C102.972 14.592 103.278 13.764 103.89 13.176C104.502 12.588 105.336 12.294 106.392 12.294C106.968 12.294 107.472 12.372 107.904 12.528C108.348 12.672 108.714 12.9 109.002 13.212C109.302 13.524 109.536 13.92 109.704 14.4C109.884 14.868 110.004 15.42 110.064 16.056L108.336 16.524C108.3 16.044 108.228 15.606 108.12 15.21C108.012 14.802 107.82 14.478 107.544 14.238C107.28 13.986 106.896 13.86 106.392 13.86C105.888 13.86 105.492 13.998 105.204 14.274C104.928 14.538 104.79 14.934 104.79 15.462C104.79 15.906 104.862 16.272 105.006 16.56C105.162 16.848 105.408 17.142 105.744 17.442L108.21 19.602C108.762 20.082 109.248 20.658 109.668 21.33C110.088 21.99 110.298 22.776 110.298 23.688C110.298 24.408 110.148 25.032 109.848 25.56C109.548 26.076 109.134 26.472 108.606 26.748C108.09 27.024 107.49 27.162 106.806 27.162Z" fill="white"/>
<path d="M6 0L1 4H6V0Z" fill="#FF3F69"/>
<path d="M5 38L0 34H5V38Z" fill="#FF3F69"/>
</svg>
