<svg width="453" height="50" viewBox="0 0 453 50" fill="none" xmlns="http://www.w3.org/2000/svg">
<rect x="361" width="77" height="50" fill="#D1143E"/>
<path d="M361 0H421.867L393.267 25L361 50V0Z" fill="#F51E4E"/>
<rect width="362" height="50" fill="#F4F4F4"/>
<path d="M50.12 32V19.04H54.808V19.984H51.352V24.848H54.168V25.744H51.352V31.088H54.84V32H50.12ZM56.431 32V22.752H57.599V23.712C57.8977 23.392 58.2337 23.1307 58.607 22.928C58.9803 22.7147 59.3857 22.608 59.823 22.608C60.1323 22.608 60.3937 22.688 60.607 22.848C60.8203 22.9973 60.9803 23.2213 61.087 23.52C61.1937 23.808 61.247 24.16 61.247 24.576V32H60.079V24.832C60.079 24.352 60.0043 24.016 59.855 23.824C59.7163 23.6213 59.4977 23.52 59.199 23.52C58.9323 23.52 58.6603 23.6 58.383 23.76C58.1057 23.92 57.8443 24.128 57.599 24.384V32H56.431ZM65.3299 32.112C64.8819 32.112 64.5352 32.0267 64.2899 31.856C64.0552 31.6747 63.8899 31.4347 63.7939 31.136C63.7085 30.8267 63.6659 30.4747 63.6659 30.08V23.52H62.5299V22.752H63.6659V19.888H64.8339V22.752H66.3699V23.52H64.8339V29.968C64.8339 30.416 64.8819 30.736 64.9779 30.928C65.0845 31.1093 65.3085 31.2 65.6499 31.2C65.7459 31.2 65.8525 31.1947 65.9699 31.184C66.0979 31.1627 66.2152 31.1413 66.3219 31.12V32.016C66.1619 32.048 65.9965 32.0693 65.8259 32.08C65.6552 32.1013 65.4899 32.112 65.3299 32.112ZM70.1022 32.144C69.5262 32.144 69.0516 32.032 68.6782 31.808C68.3156 31.5733 68.0436 31.1893 67.8622 30.656C67.6916 30.1227 67.6062 29.4133 67.6062 28.528V26.192C67.6062 25.2747 67.6969 24.56 67.8782 24.048C68.0596 23.5253 68.3369 23.1573 68.7102 22.944C69.0836 22.72 69.5529 22.608 70.1182 22.608C70.7689 22.608 71.2649 22.7467 71.6062 23.024C71.9476 23.3013 72.1822 23.7227 72.3102 24.288C72.4489 24.8427 72.5182 25.5573 72.5182 26.432V27.264H68.7742V28.88C68.7742 29.4773 68.8169 29.952 68.9022 30.304C68.9982 30.6453 69.1422 30.8907 69.3342 31.04C69.5369 31.1893 69.7929 31.264 70.1022 31.264C70.3369 31.264 70.5502 31.2213 70.7422 31.136C70.9342 31.04 71.0836 30.864 71.1902 30.608C71.3076 30.3413 71.3662 29.968 71.3662 29.488V28.848H72.5022V29.36C72.5022 30.2027 72.3262 30.88 71.9742 31.392C71.6329 31.8933 71.0089 32.144 70.1022 32.144ZM68.7742 26.592H71.3662V25.824C71.3662 25.3333 71.3396 24.9173 71.2862 24.576C71.2329 24.224 71.1156 23.9573 70.9342 23.776C70.7636 23.584 70.4862 23.488 70.1022 23.488C69.7822 23.488 69.5209 23.5573 69.3182 23.696C69.1262 23.8347 68.9876 24.0853 68.9022 24.448C68.8169 24.8 68.7742 25.3067 68.7742 25.968V26.592ZM74.3347 32V22.752H75.5187V24.016C75.8174 23.5253 76.1587 23.1787 76.5427 22.976C76.9267 22.7627 77.2947 22.656 77.6467 22.656C77.6787 22.656 77.7107 22.656 77.7427 22.656C77.7747 22.656 77.8121 22.6613 77.8547 22.672V23.92C77.7801 23.888 77.6894 23.8667 77.5827 23.856C77.4761 23.8347 77.3747 23.824 77.2787 23.824C76.9161 23.824 76.5854 23.9093 76.2867 24.08C75.9987 24.2507 75.7427 24.5227 75.5187 24.896V32H74.3347ZM82.3344 34.304V33.392C82.8677 33.392 83.2677 33.3493 83.5344 33.264C83.8117 33.1893 83.993 33.0773 84.0784 32.928C84.1744 32.7893 84.2224 32.624 84.2224 32.432C84.2224 32.2613 84.1904 32.0373 84.1264 31.76C84.0624 31.4827 83.993 31.1947 83.9184 30.896L82.0144 22.752H83.1824L84.7824 30.624L86.3344 22.752H87.5184L85.2784 32.656C85.193 33.0507 85.0384 33.3653 84.8144 33.6C84.601 33.8453 84.313 34.0213 83.9504 34.128C83.5984 34.2453 83.161 34.304 82.6384 34.304H82.3344ZM91.1321 32.144C90.5028 32.144 90.0068 32.0107 89.6441 31.744C89.2921 31.4667 89.0415 31.072 88.8921 30.56C88.7428 30.0373 88.6681 29.4027 88.6681 28.656V26.096C88.6681 25.3493 88.7428 24.72 88.8921 24.208C89.0415 23.6853 89.2921 23.2907 89.6441 23.024C90.0068 22.7467 90.5028 22.608 91.1321 22.608C91.7828 22.608 92.2841 22.7467 92.6361 23.024C92.9881 23.2907 93.2388 23.6853 93.3881 24.208C93.5375 24.72 93.6121 25.3493 93.6121 26.096V28.656C93.6121 29.4027 93.5375 30.0373 93.3881 30.56C93.2388 31.072 92.9881 31.4667 92.6361 31.744C92.2841 32.0107 91.7828 32.144 91.1321 32.144ZM91.1321 31.264C91.5375 31.264 91.8308 31.1573 92.0121 30.944C92.2041 30.7307 92.3215 30.432 92.3641 30.048C92.4068 29.6533 92.4281 29.2107 92.4281 28.72V26.032C92.4281 25.5307 92.4068 25.0933 92.3641 24.72C92.3215 24.336 92.2041 24.0373 92.0121 23.824C91.8308 23.6 91.5375 23.488 91.1321 23.488C90.7268 23.488 90.4335 23.6 90.2521 23.824C90.0708 24.0373 89.9588 24.336 89.9161 24.72C89.8735 25.0933 89.8521 25.5307 89.8521 26.032V28.72C89.8521 29.2107 89.8735 29.6533 89.9161 30.048C89.9588 30.432 90.0708 30.7307 90.2521 30.944C90.4335 31.1573 90.7268 31.264 91.1321 31.264ZM96.7547 32.144C96.4454 32.144 96.1841 32.064 95.9707 31.904C95.7574 31.744 95.5921 31.52 95.4747 31.232C95.3681 30.944 95.3147 30.592 95.3147 30.176V22.752H96.4987V29.92C96.4987 30.4 96.5681 30.736 96.7067 30.928C96.8561 31.12 97.0801 31.216 97.3787 31.216C97.6561 31.216 97.9334 31.1307 98.2107 30.96C98.4987 30.7893 98.7654 30.5707 99.0107 30.304V22.752H100.179V32H99.0107V30.976C98.7121 31.3173 98.3707 31.6 97.9867 31.824C97.6027 32.0373 97.1921 32.144 96.7547 32.144ZM102.228 32V22.752H103.412V24.016C103.711 23.5253 104.052 23.1787 104.436 22.976C104.82 22.7627 105.188 22.656 105.54 22.656C105.572 22.656 105.604 22.656 105.636 22.656C105.668 22.656 105.706 22.6613 105.748 22.672V23.92C105.674 23.888 105.583 23.8667 105.476 23.856C105.37 23.8347 105.268 23.824 105.172 23.824C104.81 23.824 104.479 23.9093 104.18 24.08C103.892 24.2507 103.636 24.5227 103.412 24.896V32H102.228ZM112.804 32.144C112.228 32.144 111.753 32.032 111.38 31.808C111.017 31.5733 110.745 31.1893 110.564 30.656C110.393 30.1227 110.308 29.4133 110.308 28.528V26.192C110.308 25.2747 110.399 24.56 110.58 24.048C110.761 23.5253 111.039 23.1573 111.412 22.944C111.785 22.72 112.255 22.608 112.82 22.608C113.471 22.608 113.967 22.7467 114.308 23.024C114.649 23.3013 114.884 23.7227 115.012 24.288C115.151 24.8427 115.22 25.5573 115.22 26.432V27.264H111.476V28.88C111.476 29.4773 111.519 29.952 111.604 30.304C111.7 30.6453 111.844 30.8907 112.036 31.04C112.239 31.1893 112.495 31.264 112.804 31.264C113.039 31.264 113.252 31.2213 113.444 31.136C113.636 31.04 113.785 30.864 113.892 30.608C114.009 30.3413 114.068 29.968 114.068 29.488V28.848H115.204V29.36C115.204 30.2027 115.028 30.88 114.676 31.392C114.335 31.8933 113.711 32.144 112.804 32.144ZM111.476 26.592H114.068V25.824C114.068 25.3333 114.041 24.9173 113.988 24.576C113.935 24.224 113.817 23.9573 113.636 23.776C113.465 23.584 113.188 23.488 112.804 23.488C112.484 23.488 112.223 23.5573 112.02 23.696C111.828 23.8347 111.689 24.0853 111.604 24.448C111.519 24.8 111.476 25.3067 111.476 25.968V26.592ZM116.957 32V22.752H118.045V23.696C118.354 23.3333 118.695 23.0613 119.069 22.88C119.442 22.688 119.826 22.592 120.221 22.592C120.541 22.592 120.834 22.6773 121.101 22.848C121.378 23.0187 121.575 23.3333 121.693 23.792C122.013 23.3973 122.365 23.0987 122.749 22.896C123.133 22.6933 123.538 22.592 123.965 22.592C124.231 22.592 124.482 22.656 124.717 22.784C124.962 22.912 125.159 23.1307 125.309 23.44C125.458 23.7493 125.533 24.1707 125.533 24.704V32H124.445V24.736C124.445 24.192 124.354 23.8347 124.173 23.664C124.002 23.4827 123.783 23.392 123.517 23.392C123.218 23.392 122.919 23.4773 122.621 23.648C122.322 23.8187 122.039 24.0533 121.773 24.352C121.783 24.4053 121.789 24.464 121.789 24.528C121.799 24.5813 121.805 24.64 121.805 24.704V32H120.701V24.736C120.701 24.192 120.61 23.8347 120.429 23.664C120.258 23.4827 120.039 23.392 119.773 23.392C119.485 23.392 119.191 23.4773 118.893 23.648C118.594 23.8187 118.311 24.048 118.045 24.336V32H116.957ZM129.014 32.144C128.64 32.144 128.315 32.0533 128.038 31.872C127.76 31.68 127.542 31.4293 127.382 31.12C127.232 30.8 127.158 30.4533 127.158 30.08C127.158 29.6107 127.222 29.2107 127.35 28.88C127.488 28.5493 127.702 28.256 127.99 28C128.288 27.7333 128.672 27.4773 129.142 27.232C129.622 26.976 130.203 26.6933 130.886 26.384V25.728C130.886 25.1627 130.848 24.72 130.774 24.4C130.71 24.0693 130.592 23.8347 130.422 23.696C130.262 23.5573 130.032 23.488 129.734 23.488C129.488 23.488 129.27 23.536 129.078 23.632C128.886 23.728 128.731 23.8933 128.614 24.128C128.496 24.352 128.438 24.6667 128.438 25.072V25.392L127.286 25.376C127.296 24.4373 127.494 23.744 127.878 23.296C128.272 22.8373 128.912 22.608 129.798 22.608C130.63 22.608 131.211 22.8587 131.542 23.36C131.883 23.8507 132.054 24.6187 132.054 25.664V30.16C132.054 30.32 132.059 30.528 132.07 30.784C132.08 31.0293 132.091 31.264 132.102 31.488C132.112 31.712 132.123 31.8827 132.134 32H131.094C131.072 31.7973 131.04 31.5733 130.998 31.328C130.955 31.072 130.928 30.8693 130.918 30.72C130.79 31.0933 130.56 31.424 130.23 31.712C129.91 32 129.504 32.144 129.014 32.144ZM129.382 31.152C129.616 31.152 129.83 31.0933 130.022 30.976C130.214 30.8587 130.384 30.72 130.534 30.56C130.683 30.3893 130.8 30.2187 130.886 30.048V27.168C130.427 27.4027 130.032 27.616 129.702 27.808C129.382 28 129.12 28.1867 128.918 28.368C128.715 28.5493 128.566 28.7573 128.47 28.992C128.374 29.216 128.326 29.4827 128.326 29.792C128.326 30.2827 128.432 30.6347 128.646 30.848C128.859 31.0507 129.104 31.152 129.382 31.152ZM134.061 32V22.752H135.229V32H134.061ZM134.061 21.472V19.888H135.229V21.472H134.061ZM137.519 32V19.04H138.687V32H137.519ZM145.779 32.144C145.405 32.144 145.08 32.0533 144.803 31.872C144.525 31.68 144.307 31.4293 144.147 31.12C143.997 30.8 143.923 30.4533 143.923 30.08C143.923 29.6107 143.987 29.2107 144.115 28.88C144.253 28.5493 144.467 28.256 144.755 28C145.053 27.7333 145.437 27.4773 145.907 27.232C146.387 26.976 146.968 26.6933 147.651 26.384V25.728C147.651 25.1627 147.613 24.72 147.539 24.4C147.475 24.0693 147.357 23.8347 147.187 23.696C147.027 23.5573 146.797 23.488 146.499 23.488C146.253 23.488 146.035 23.536 145.843 23.632C145.651 23.728 145.496 23.8933 145.379 24.128C145.261 24.352 145.203 24.6667 145.203 25.072V25.392L144.051 25.376C144.061 24.4373 144.259 23.744 144.643 23.296C145.037 22.8373 145.677 22.608 146.563 22.608C147.395 22.608 147.976 22.8587 148.307 23.36C148.648 23.8507 148.819 24.6187 148.819 25.664V30.16C148.819 30.32 148.824 30.528 148.835 30.784C148.845 31.0293 148.856 31.264 148.867 31.488C148.877 31.712 148.888 31.8827 148.899 32H147.859C147.837 31.7973 147.805 31.5733 147.763 31.328C147.72 31.072 147.693 30.8693 147.683 30.72C147.555 31.0933 147.325 31.424 146.995 31.712C146.675 32 146.269 32.144 145.779 32.144ZM146.147 31.152C146.381 31.152 146.595 31.0933 146.787 30.976C146.979 30.8587 147.149 30.72 147.299 30.56C147.448 30.3893 147.565 30.2187 147.651 30.048V27.168C147.192 27.4027 146.797 27.616 146.467 27.808C146.147 28 145.885 28.1867 145.683 28.368C145.48 28.5493 145.331 28.7573 145.235 28.992C145.139 29.216 145.091 29.4827 145.091 29.792C145.091 30.2827 145.197 30.6347 145.411 30.848C145.624 31.0507 145.869 31.152 146.147 31.152ZM152.746 32.144C151.957 32.144 151.386 31.8453 151.034 31.248C150.693 30.6507 150.522 29.6587 150.522 28.272V26.56C150.522 25.7493 150.581 25.0507 150.698 24.464C150.815 23.8773 151.029 23.424 151.338 23.104C151.658 22.7733 152.111 22.608 152.698 22.608C153.061 22.608 153.375 22.6933 153.642 22.864C153.919 23.024 154.149 23.2053 154.33 23.408V19.04H155.498V32H154.33V31.344C154.149 31.5467 153.925 31.7333 153.658 31.904C153.402 32.064 153.098 32.144 152.746 32.144ZM152.986 31.216C153.242 31.216 153.482 31.1573 153.706 31.04C153.941 30.9227 154.149 30.7787 154.33 30.608V24.176C154.17 24.0267 153.973 23.8827 153.738 23.744C153.503 23.5947 153.242 23.52 152.954 23.52C152.442 23.52 152.101 23.7493 151.93 24.208C151.77 24.656 151.69 25.312 151.69 26.176V28.368C151.69 28.9867 151.722 29.5093 151.786 29.936C151.861 30.3627 151.989 30.6827 152.17 30.896C152.362 31.1093 152.634 31.216 152.986 31.216ZM159.515 32.144C158.726 32.144 158.155 31.8453 157.803 31.248C157.462 30.6507 157.291 29.6587 157.291 28.272V26.56C157.291 25.7493 157.35 25.0507 157.467 24.464C157.585 23.8773 157.798 23.424 158.107 23.104C158.427 22.7733 158.881 22.608 159.467 22.608C159.83 22.608 160.145 22.6933 160.411 22.864C160.689 23.024 160.918 23.2053 161.099 23.408V19.04H162.267V32H161.099V31.344C160.918 31.5467 160.694 31.7333 160.427 31.904C160.171 32.064 159.867 32.144 159.515 32.144ZM159.755 31.216C160.011 31.216 160.251 31.1573 160.475 31.04C160.71 30.9227 160.918 30.7787 161.099 30.608V24.176C160.939 24.0267 160.742 23.8827 160.507 23.744C160.273 23.5947 160.011 23.52 159.723 23.52C159.211 23.52 158.87 23.7493 158.699 24.208C158.539 24.656 158.459 25.312 158.459 26.176V28.368C158.459 28.9867 158.491 29.5093 158.555 29.936C158.63 30.3627 158.758 30.6827 158.939 30.896C159.131 31.1093 159.403 31.216 159.755 31.216ZM164.317 32V22.752H165.501V24.016C165.799 23.5253 166.141 23.1787 166.525 22.976C166.909 22.7627 167.277 22.656 167.629 22.656C167.661 22.656 167.693 22.656 167.725 22.656C167.757 22.656 167.794 22.6613 167.837 22.672V23.92C167.762 23.888 167.671 23.8667 167.565 23.856C167.458 23.8347 167.357 23.824 167.261 23.824C166.898 23.824 166.567 23.9093 166.269 24.08C165.981 24.2507 165.725 24.5227 165.501 24.896V32H164.317ZM171.42 32.144C170.844 32.144 170.369 32.032 169.996 31.808C169.633 31.5733 169.361 31.1893 169.18 30.656C169.009 30.1227 168.924 29.4133 168.924 28.528V26.192C168.924 25.2747 169.014 24.56 169.196 24.048C169.377 23.5253 169.654 23.1573 170.028 22.944C170.401 22.72 170.87 22.608 171.436 22.608C172.086 22.608 172.582 22.7467 172.924 23.024C173.265 23.3013 173.5 23.7227 173.628 24.288C173.766 24.8427 173.836 25.5573 173.836 26.432V27.264H170.092V28.88C170.092 29.4773 170.134 29.952 170.22 30.304C170.316 30.6453 170.46 30.8907 170.652 31.04C170.854 31.1893 171.11 31.264 171.42 31.264C171.654 31.264 171.868 31.2213 172.06 31.136C172.252 31.04 172.401 30.864 172.508 30.608C172.625 30.3413 172.684 29.968 172.684 29.488V28.848H173.82V29.36C173.82 30.2027 173.644 30.88 173.292 31.392C172.95 31.8933 172.326 32.144 171.42 32.144ZM170.092 26.592H172.684V25.824C172.684 25.3333 172.657 24.9173 172.604 24.576C172.55 24.224 172.433 23.9573 172.252 23.776C172.081 23.584 171.804 23.488 171.42 23.488C171.1 23.488 170.838 23.5573 170.636 23.696C170.444 23.8347 170.305 24.0853 170.22 24.448C170.134 24.8 170.092 25.3067 170.092 25.968V26.592ZM177.684 32.144C176.948 32.144 176.362 31.9093 175.924 31.44C175.487 30.96 175.236 30.32 175.172 29.52L176.148 29.216C176.212 29.9307 176.378 30.4533 176.644 30.784C176.911 31.104 177.284 31.264 177.764 31.264C178.17 31.264 178.479 31.152 178.692 30.928C178.916 30.6933 179.028 30.368 179.028 29.952C179.028 29.6533 178.938 29.3547 178.756 29.056C178.575 28.7467 178.292 28.4267 177.908 28.096L176.644 27.008C176.228 26.656 175.914 26.304 175.7 25.952C175.487 25.6 175.38 25.1787 175.38 24.688C175.38 24.24 175.471 23.8667 175.652 23.568C175.844 23.2587 176.106 23.024 176.436 22.864C176.767 22.6933 177.151 22.608 177.588 22.608C178.292 22.608 178.826 22.8373 179.188 23.296C179.551 23.744 179.748 24.3253 179.78 25.04L178.948 25.312C178.927 24.896 178.863 24.5547 178.756 24.288C178.65 24.0107 178.5 23.808 178.308 23.68C178.127 23.552 177.903 23.488 177.636 23.488C177.284 23.488 176.996 23.5893 176.772 23.792C176.559 23.984 176.452 24.256 176.452 24.608C176.452 24.8853 176.506 25.1307 176.612 25.344C176.719 25.5573 176.916 25.7973 177.204 26.064L178.516 27.232C178.772 27.456 179.018 27.696 179.252 27.952C179.487 28.208 179.679 28.496 179.828 28.816C179.978 29.1253 180.052 29.4933 180.052 29.92C180.052 30.4 179.951 30.8053 179.748 31.136C179.556 31.456 179.284 31.7067 178.932 31.888C178.58 32.0587 178.164 32.144 177.684 32.144ZM183.657 32.144C182.921 32.144 182.334 31.9093 181.897 31.44C181.459 30.96 181.209 30.32 181.145 29.52L182.121 29.216C182.185 29.9307 182.35 30.4533 182.617 30.784C182.883 31.104 183.257 31.264 183.737 31.264C184.142 31.264 184.451 31.152 184.665 30.928C184.889 30.6933 185.001 30.368 185.001 29.952C185.001 29.6533 184.91 29.3547 184.729 29.056C184.547 28.7467 184.265 28.4267 183.881 28.096L182.617 27.008C182.201 26.656 181.886 26.304 181.673 25.952C181.459 25.6 181.353 25.1787 181.353 24.688C181.353 24.24 181.443 23.8667 181.625 23.568C181.817 23.2587 182.078 23.024 182.409 22.864C182.739 22.6933 183.123 22.608 183.561 22.608C184.265 22.608 184.798 22.8373 185.161 23.296C185.523 23.744 185.721 24.3253 185.753 25.04L184.921 25.312C184.899 24.896 184.835 24.5547 184.729 24.288C184.622 24.0107 184.473 23.808 184.281 23.68C184.099 23.552 183.875 23.488 183.609 23.488C183.257 23.488 182.969 23.5893 182.745 23.792C182.531 23.984 182.425 24.256 182.425 24.608C182.425 24.8853 182.478 25.1307 182.585 25.344C182.691 25.5573 182.889 25.7973 183.177 26.064L184.489 27.232C184.745 27.456 184.99 27.696 185.225 27.952C185.459 28.208 185.651 28.496 185.801 28.816C185.95 29.1253 186.025 29.4933 186.025 29.92C186.025 30.4 185.923 30.8053 185.721 31.136C185.529 31.456 185.257 31.7067 184.905 31.888C184.553 32.0587 184.137 32.144 183.657 32.144Z" fill="#939393"/>
<path d="M16 21.2444C16.0888 21.1378 16.0772 20.9917 16.1743 20.8796C16.218 20.9167 16.2636 20.9533 16.3068 20.9921C18.1355 22.6388 19.9658 24.2847 21.7979 25.9298C21.9081 26.0279 21.9081 26.0751 21.7979 26.1732C19.9646 27.8165 18.1342 29.4624 16.3068 31.1108C16.2636 31.1496 16.218 31.1862 16.1674 31.2309C16.1088 31.0986 16.0553 30.9782 16.0019 30.8586L16 21.2444Z" fill="#939393"/>
<path d="M16.9668 20.1526C17.1944 20.0495 17.446 19.9972 17.7004 20.0001H19.4629C24.0454 20.0001 28.6281 20.0001 33.2112 20.0001C33.4934 20.0001 33.7645 20.0334 34.0225 20.1463C34.0123 20.2073 33.9532 20.2347 33.9118 20.2726C31.5278 22.4216 29.1431 24.5707 26.7578 26.7197C26.239 27.1872 25.6355 27.3514 24.9284 27.1341C24.6837 27.0547 24.4626 26.925 24.2826 26.7551C21.8651 24.5791 19.4493 22.4021 17.0351 20.2242C17.0138 20.2031 16.9947 20.1816 16.9668 20.1526Z" fill="#939393"/>
<path d="M34.0261 31.9535C33.8008 32.0544 33.5522 32.1054 33.3009 32.1021H31.5017C26.9334 32.1021 22.3649 32.1021 17.7961 32.1021C17.5097 32.1021 17.2354 32.0689 16.9648 31.9497C17.0113 31.9076 17.0462 31.8684 17.0848 31.8334C18.9181 30.1847 20.7503 28.5353 22.5814 26.8852C22.6902 26.7871 22.7437 26.7842 22.852 26.8852C23.1593 27.1687 23.4489 27.4707 23.7986 27.7128C24.9357 28.5012 26.4444 28.4056 27.4932 27.4833C27.715 27.2883 27.9377 27.0937 28.1469 26.8878C28.2496 26.7871 28.3049 26.7821 28.417 26.8836C29.9521 28.2725 31.4905 29.6589 33.0321 31.0425C33.3645 31.339 33.6905 31.6443 34.0261 31.9535Z" fill="#939393"/>
<path d="M34.8323 20.8716C34.9445 21.0838 35.0019 21.3164 35.0001 21.5518C35.0001 24.5526 35.0001 27.5537 35.0001 30.5549C35.003 30.7882 34.9457 31.019 34.8327 31.2287C34.7862 31.1917 34.7458 31.1596 34.7072 31.1247C32.8699 29.4718 31.0319 27.8189 29.1934 26.166C29.1032 26.0851 29.0762 26.0426 29.1836 25.9461C31.0377 24.2845 32.8891 22.6201 34.7379 20.9529C34.7635 20.9276 34.7914 20.904 34.8323 20.8716Z" fill="#939393"/>
<rect x="389" y="25" width="20" height="2" fill="white"/>
<path d="M402 19L410 26L402 32" stroke="white" stroke-width="2"/>
</svg>
