<svg width="467" height="40" viewBox="0 0 467 40" fill="none" xmlns="http://www.w3.org/2000/svg">
<rect x="362" width="105" height="40" fill="#D1143E"/>
<path d="M362 0H445L406 20L362 40V0Z" fill="#F51E4E"/>
<path d="M375.976 27V14.04H381.448V15.832H378.616V19.336H381.016V21.176H378.616V27H375.976ZM383.661 27V17.752H386.077V27H383.661ZM383.645 16.232V14.424H386.077V16.232H383.645ZM388.738 27V17.752H391.154V18.68C391.485 18.3493 391.832 18.088 392.194 17.896C392.568 17.6933 392.962 17.592 393.378 17.592C393.762 17.592 394.072 17.688 394.306 17.88C394.552 18.072 394.733 18.328 394.85 18.648C394.968 18.9573 395.026 19.3093 395.026 19.704V27H392.626V20.104C392.626 19.848 392.584 19.656 392.498 19.528C392.424 19.4 392.274 19.336 392.05 19.336C391.922 19.336 391.778 19.3733 391.618 19.448C391.469 19.512 391.314 19.6027 391.154 19.72V27H388.738ZM399.661 27.16C398.957 27.16 398.413 26.9093 398.029 26.408C397.656 25.9067 397.469 25.1387 397.469 24.104V20.712C397.469 20.1147 397.544 19.5813 397.693 19.112C397.853 18.6427 398.093 18.2747 398.413 18.008C398.733 17.7307 399.144 17.592 399.645 17.592C399.976 17.592 400.29 17.6613 400.589 17.8C400.888 17.9387 401.16 18.1147 401.405 18.328V14.04H403.821V27H401.405V26.312C401.138 26.568 400.856 26.776 400.557 26.936C400.269 27.0853 399.97 27.16 399.661 27.16ZM400.637 25.56C400.744 25.56 400.861 25.5387 400.989 25.496C401.128 25.4427 401.266 25.3733 401.405 25.288V19.4C401.288 19.336 401.165 19.2827 401.037 19.24C400.909 19.1867 400.781 19.16 400.653 19.16C400.376 19.16 400.178 19.2773 400.061 19.512C399.954 19.7467 399.901 20.0293 399.901 20.36V24.264C399.901 24.5093 399.922 24.7333 399.965 24.936C400.008 25.128 400.082 25.2827 400.189 25.4C400.296 25.5067 400.445 25.56 400.637 25.56ZM411.569 27L411.793 14.04H414.593L416.193 22.216L417.905 14.04H420.609L420.833 27H418.913L418.705 18.216L417.057 27H415.409L413.681 18.152L413.505 27H411.569ZM425.438 27.16C425 27.16 424.622 27.048 424.302 26.824C423.992 26.6 423.758 26.3173 423.598 25.976C423.438 25.6347 423.358 25.2827 423.358 24.92C423.358 24.344 423.47 23.8587 423.694 23.464C423.918 23.0693 424.211 22.7387 424.574 22.472C424.936 22.2053 425.342 21.976 425.79 21.784C426.238 21.592 426.686 21.416 427.134 21.256V20.392C427.134 20.1893 427.118 20.0133 427.086 19.864C427.054 19.7147 426.99 19.6027 426.894 19.528C426.808 19.4427 426.68 19.4 426.51 19.4C426.339 19.4 426.206 19.4373 426.11 19.512C426.024 19.576 425.96 19.6773 425.918 19.816C425.886 19.944 425.864 20.088 425.854 20.248L425.806 20.888L423.518 20.792C423.571 19.704 423.854 18.8987 424.366 18.376C424.888 17.8533 425.672 17.592 426.718 17.592C427.656 17.592 428.35 17.8533 428.798 18.376C429.246 18.888 429.47 19.5653 429.47 20.408V24.712C429.47 25.0747 429.475 25.4 429.486 25.688C429.507 25.9653 429.528 26.216 429.55 26.44C429.582 26.6533 429.608 26.84 429.63 27H427.454C427.422 26.7653 427.384 26.5093 427.342 26.232C427.299 25.9547 427.267 25.768 427.246 25.672C427.139 26.056 426.936 26.4027 426.638 26.712C426.339 27.0107 425.939 27.16 425.438 27.16ZM426.318 25.448C426.435 25.448 426.547 25.4213 426.654 25.368C426.76 25.3147 426.851 25.2453 426.926 25.16C427.011 25.0747 427.08 24.9947 427.134 24.92V22.376C426.91 22.5147 426.702 22.6533 426.51 22.792C426.318 22.92 426.152 23.064 426.014 23.224C425.875 23.384 425.768 23.56 425.694 23.752C425.619 23.944 425.582 24.1627 425.582 24.408C425.582 24.728 425.646 24.984 425.774 25.176C425.902 25.3573 426.083 25.448 426.318 25.448ZM434.756 27.096C434.116 27.096 433.615 27 433.252 26.808C432.89 26.6053 432.639 26.3173 432.5 25.944C432.362 25.5707 432.292 25.1173 432.292 24.584V19.336H431.38V17.752H432.292V14.952H434.74V17.752H436.084V19.336H434.74V24.36C434.74 24.648 434.81 24.856 434.948 24.984C435.098 25.1013 435.3 25.16 435.556 25.16C435.684 25.16 435.807 25.1547 435.924 25.144C436.042 25.1227 436.148 25.1067 436.244 25.096V26.984C436.095 27.0053 435.882 27.0267 435.604 27.048C435.327 27.08 435.044 27.096 434.756 27.096ZM441.384 27.16C440.702 27.16 440.131 27.032 439.672 26.776C439.214 26.5093 438.867 26.136 438.632 25.656C438.408 25.176 438.296 24.6053 438.296 23.944V20.824C438.296 20.1307 438.408 19.5493 438.632 19.08C438.867 18.6 439.214 18.232 439.672 17.976C440.131 17.72 440.702 17.592 441.384 17.592C442.046 17.592 442.6 17.6987 443.048 17.912C443.496 18.1147 443.827 18.424 444.04 18.84C444.264 19.256 444.376 19.7787 444.376 20.408V21.288H442.072V20.344C442.072 20.0667 442.046 19.8533 441.992 19.704C441.95 19.544 441.875 19.432 441.768 19.368C441.672 19.304 441.544 19.272 441.384 19.272C441.224 19.272 441.096 19.3147 441 19.4C440.904 19.4747 440.835 19.608 440.792 19.8C440.75 19.9813 440.728 20.2373 440.728 20.568V24.2C440.728 24.7013 440.782 25.0427 440.888 25.224C441.006 25.3947 441.176 25.48 441.4 25.48C441.571 25.48 441.704 25.4427 441.8 25.368C441.896 25.2933 441.966 25.176 442.008 25.016C442.051 24.856 442.072 24.6533 442.072 24.408V23.288H444.376V24.296C444.376 24.9147 444.264 25.4427 444.04 25.88C443.816 26.3067 443.48 26.6267 443.032 26.84C442.584 27.0533 442.035 27.16 441.384 27.16ZM446.801 27V14.04H449.201V18.6C449.542 18.2693 449.9 18.0187 450.273 17.848C450.646 17.6773 451.052 17.592 451.489 17.592C451.862 17.592 452.166 17.688 452.401 17.88C452.646 18.072 452.828 18.328 452.945 18.648C453.062 18.9573 453.121 19.3093 453.121 19.704V27H450.705V20.104C450.705 19.848 450.668 19.656 450.593 19.528C450.518 19.4 450.369 19.336 450.145 19.336C450.017 19.336 449.868 19.3733 449.697 19.448C449.537 19.512 449.372 19.6027 449.201 19.72V27H446.801Z" fill="white"/>
<rect width="362" height="40" fill="#0F2139"/>
<path d="M42.645 25.15C41.985 25.15 41.435 25.015 40.995 24.745C40.565 24.465 40.24 24.08 40.02 23.59C39.8 23.09 39.665 22.51 39.615 21.85L40.62 21.55C40.67 22.05 40.76 22.505 40.89 22.915C41.02 23.315 41.225 23.635 41.505 23.875C41.785 24.105 42.17 24.22 42.66 24.22C43.2 24.22 43.62 24.08 43.92 23.8C44.22 23.52 44.37 23.075 44.37 22.465C44.37 21.925 44.235 21.46 43.965 21.07C43.705 20.68 43.345 20.27 42.885 19.84L40.74 17.785C40.36 17.415 40.08 17.035 39.9 16.645C39.72 16.245 39.63 15.81 39.63 15.34C39.63 14.5 39.88 13.855 40.38 13.405C40.88 12.955 41.545 12.73 42.375 12.73C42.805 12.73 43.19 12.785 43.53 12.895C43.88 13.005 44.175 13.185 44.415 13.435C44.665 13.675 44.86 13.99 45 14.38C45.14 14.77 45.235 15.245 45.285 15.805L44.31 16.06C44.27 15.55 44.185 15.115 44.055 14.755C43.935 14.385 43.74 14.105 43.47 13.915C43.21 13.725 42.845 13.63 42.375 13.63C41.875 13.63 41.465 13.76 41.145 14.02C40.825 14.28 40.665 14.685 40.665 15.235C40.665 15.565 40.725 15.865 40.845 16.135C40.975 16.405 41.2 16.695 41.52 17.005L43.665 19.03C44.145 19.48 44.56 19.98 44.91 20.53C45.26 21.08 45.435 21.7 45.435 22.39C45.435 23 45.315 23.51 45.075 23.92C44.845 24.33 44.52 24.64 44.1 24.85C43.68 25.05 43.195 25.15 42.645 25.15ZM49.1394 25.135C48.5994 25.135 48.1544 25.03 47.8044 24.82C47.4644 24.6 47.2094 24.24 47.0394 23.74C46.8794 23.24 46.7994 22.575 46.7994 21.745V19.555C46.7994 18.695 46.8844 18.025 47.0544 17.545C47.2244 17.055 47.4844 16.71 47.8344 16.51C48.1844 16.3 48.6244 16.195 49.1544 16.195C49.7644 16.195 50.2294 16.325 50.5494 16.585C50.8694 16.845 51.0894 17.24 51.2094 17.77C51.3394 18.29 51.4044 18.96 51.4044 19.78V20.56H47.8944V22.075C47.8944 22.635 47.9344 23.08 48.0144 23.41C48.1044 23.73 48.2394 23.96 48.4194 24.1C48.6094 24.24 48.8494 24.31 49.1394 24.31C49.3594 24.31 49.5594 24.27 49.7394 24.19C49.9194 24.1 50.0594 23.935 50.1594 23.695C50.2694 23.445 50.3244 23.095 50.3244 22.645V22.045H51.3894V22.525C51.3894 23.315 51.2244 23.95 50.8944 24.43C50.5744 24.9 49.9894 25.135 49.1394 25.135ZM47.8944 19.93H50.3244V19.21C50.3244 18.75 50.2994 18.36 50.2494 18.04C50.1994 17.71 50.0894 17.46 49.9194 17.29C49.7594 17.11 49.4994 17.02 49.1394 17.02C48.8394 17.02 48.5944 17.085 48.4044 17.215C48.2244 17.345 48.0944 17.58 48.0144 17.92C47.9344 18.25 47.8944 18.725 47.8944 19.345V19.93ZM54.6074 25.135C54.2574 25.135 53.9524 25.05 53.6924 24.88C53.4324 24.7 53.2274 24.465 53.0774 24.175C52.9374 23.875 52.8674 23.55 52.8674 23.2C52.8674 22.76 52.9274 22.385 53.0474 22.075C53.1774 21.765 53.3774 21.49 53.6474 21.25C53.9274 21 54.2874 20.76 54.7274 20.53C55.1774 20.29 55.7224 20.025 56.3624 19.735V19.12C56.3624 18.59 56.3274 18.175 56.2574 17.875C56.1974 17.565 56.0874 17.345 55.9274 17.215C55.7774 17.085 55.5624 17.02 55.2824 17.02C55.0524 17.02 54.8474 17.065 54.6674 17.155C54.4874 17.245 54.3424 17.4 54.2324 17.62C54.1224 17.83 54.0674 18.125 54.0674 18.505V18.805L52.9874 18.79C52.9974 17.91 53.1824 17.26 53.5424 16.84C53.9124 16.41 54.5124 16.195 55.3424 16.195C56.1224 16.195 56.6674 16.43 56.9774 16.9C57.2974 17.36 57.4574 18.08 57.4574 19.06V23.275C57.4574 23.425 57.4624 23.62 57.4724 23.86C57.4824 24.09 57.4924 24.31 57.5024 24.52C57.5124 24.73 57.5224 24.89 57.5324 25H56.5574C56.5374 24.81 56.5074 24.6 56.4674 24.37C56.4274 24.13 56.4024 23.94 56.3924 23.8C56.2724 24.15 56.0574 24.46 55.7474 24.73C55.4474 25 55.0674 25.135 54.6074 25.135ZM54.9524 24.205C55.1724 24.205 55.3724 24.15 55.5524 24.04C55.7324 23.93 55.8924 23.8 56.0324 23.65C56.1724 23.49 56.2824 23.33 56.3624 23.17V20.47C55.9324 20.69 55.5624 20.89 55.2524 21.07C54.9524 21.25 54.7074 21.425 54.5174 21.595C54.3274 21.765 54.1874 21.96 54.0974 22.18C54.0074 22.39 53.9624 22.64 53.9624 22.93C53.9624 23.39 54.0624 23.72 54.2624 23.92C54.4624 24.11 54.6924 24.205 54.9524 24.205ZM59.3693 25V16.33H60.4793V17.515C60.7593 17.055 61.0793 16.73 61.4393 16.54C61.7993 16.34 62.1443 16.24 62.4743 16.24C62.5043 16.24 62.5343 16.24 62.5643 16.24C62.5943 16.24 62.6293 16.245 62.6693 16.255V17.425C62.5993 17.395 62.5143 17.375 62.4143 17.365C62.3143 17.345 62.2193 17.335 62.1293 17.335C61.7893 17.335 61.4793 17.415 61.1993 17.575C60.9293 17.735 60.6893 17.99 60.4793 18.34V25H59.3693ZM66.0885 25.135C65.4085 25.135 64.9035 24.985 64.5735 24.685C64.2435 24.385 64.0235 23.98 63.9135 23.47C63.8135 22.95 63.7635 22.365 63.7635 21.715V19.69C63.7635 18.89 63.8285 18.235 63.9585 17.725C64.0885 17.205 64.3185 16.82 64.6485 16.57C64.9885 16.32 65.4685 16.195 66.0885 16.195C66.6985 16.195 67.1635 16.31 67.4835 16.54C67.8035 16.77 68.0185 17.095 68.1285 17.515C68.2385 17.935 68.2935 18.42 68.2935 18.97V19.39H67.2735V18.97C67.2735 18.46 67.2335 18.065 67.1535 17.785C67.0835 17.505 66.9585 17.31 66.7785 17.2C66.6085 17.08 66.3785 17.02 66.0885 17.02C65.7485 17.02 65.4885 17.1 65.3085 17.26C65.1285 17.42 65.0085 17.685 64.9485 18.055C64.8885 18.415 64.8585 18.9 64.8585 19.51V21.94C64.8585 22.81 64.9435 23.425 65.1135 23.785C65.2835 24.135 65.6135 24.31 66.1035 24.31C66.4435 24.31 66.6985 24.235 66.8685 24.085C67.0385 23.925 67.1485 23.69 67.1985 23.38C67.2485 23.07 67.2735 22.685 67.2735 22.225V21.745H68.2935V22.165C68.2935 22.745 68.2385 23.26 68.1285 23.71C68.0285 24.15 67.8185 24.5 67.4985 24.76C67.1785 25.01 66.7085 25.135 66.0885 25.135ZM69.9986 25V12.85H71.0936V17.245C71.3836 16.935 71.7036 16.685 72.0536 16.495C72.4036 16.295 72.7886 16.195 73.2086 16.195C73.4986 16.195 73.7386 16.27 73.9286 16.42C74.1286 16.56 74.2786 16.77 74.3786 17.05C74.4886 17.32 74.5436 17.65 74.5436 18.04V25H73.4336V18.28C73.4336 17.83 73.3636 17.515 73.2236 17.335C73.0936 17.145 72.8886 17.05 72.6086 17.05C72.3586 17.05 72.0986 17.13 71.8286 17.29C71.5686 17.44 71.3236 17.635 71.0936 17.875V25H69.9986ZM79.6767 25V16.33H80.6967V17.215C80.9867 16.875 81.3067 16.62 81.6567 16.45C82.0067 16.27 82.3667 16.18 82.7367 16.18C83.0367 16.18 83.3117 16.26 83.5617 16.42C83.8217 16.58 84.0067 16.875 84.1167 17.305C84.4167 16.935 84.7467 16.655 85.1067 16.465C85.4667 16.275 85.8467 16.18 86.2467 16.18C86.4967 16.18 86.7317 16.24 86.9517 16.36C87.1817 16.48 87.3667 16.685 87.5067 16.975C87.6467 17.265 87.7167 17.66 87.7167 18.16V25H86.6967V18.19C86.6967 17.68 86.6117 17.345 86.4417 17.185C86.2817 17.015 86.0767 16.93 85.8267 16.93C85.5467 16.93 85.2667 17.01 84.9867 17.17C84.7067 17.33 84.4417 17.55 84.1917 17.83C84.2017 17.88 84.2067 17.935 84.2067 17.995C84.2167 18.045 84.2217 18.1 84.2217 18.16V25H83.1867V18.19C83.1867 17.68 83.1017 17.345 82.9317 17.185C82.7717 17.015 82.5667 16.93 82.3167 16.93C82.0467 16.93 81.7717 17.01 81.4917 17.17C81.2117 17.33 80.9467 17.545 80.6967 17.815V25H79.6767ZM91.055 25.135C90.705 25.135 90.4 25.05 90.14 24.88C89.88 24.7 89.675 24.465 89.525 24.175C89.385 23.875 89.315 23.55 89.315 23.2C89.315 22.76 89.375 22.385 89.495 22.075C89.625 21.765 89.825 21.49 90.095 21.25C90.375 21 90.735 20.76 91.175 20.53C91.625 20.29 92.17 20.025 92.81 19.735V19.12C92.81 18.59 92.775 18.175 92.705 17.875C92.645 17.565 92.535 17.345 92.375 17.215C92.225 17.085 92.01 17.02 91.73 17.02C91.5 17.02 91.295 17.065 91.115 17.155C90.935 17.245 90.79 17.4 90.68 17.62C90.57 17.83 90.515 18.125 90.515 18.505V18.805L89.435 18.79C89.445 17.91 89.63 17.26 89.99 16.84C90.36 16.41 90.96 16.195 91.79 16.195C92.57 16.195 93.115 16.43 93.425 16.9C93.745 17.36 93.905 18.08 93.905 19.06V23.275C93.905 23.425 93.91 23.62 93.92 23.86C93.93 24.09 93.94 24.31 93.95 24.52C93.96 24.73 93.97 24.89 93.98 25H93.005C92.985 24.81 92.955 24.6 92.915 24.37C92.875 24.13 92.85 23.94 92.84 23.8C92.72 24.15 92.505 24.46 92.195 24.73C91.895 25 91.515 25.135 91.055 25.135ZM91.4 24.205C91.62 24.205 91.82 24.15 92 24.04C92.18 23.93 92.34 23.8 92.48 23.65C92.62 23.49 92.73 23.33 92.81 23.17V20.47C92.38 20.69 92.01 20.89 91.7 21.07C91.4 21.25 91.155 21.425 90.965 21.595C90.775 21.765 90.635 21.96 90.545 22.18C90.455 22.39 90.41 22.64 90.41 22.93C90.41 23.39 90.51 23.72 90.71 23.92C90.91 24.11 91.14 24.205 91.4 24.205ZM97.7384 25.105C97.3184 25.105 96.9934 25.025 96.7634 24.865C96.5434 24.695 96.3884 24.47 96.2984 24.19C96.2184 23.9 96.1784 23.57 96.1784 23.2V17.05H95.1134V16.33H96.1784V13.645H97.2734V16.33H98.7134V17.05H97.2734V23.095C97.2734 23.515 97.3184 23.815 97.4084 23.995C97.5084 24.165 97.7184 24.25 98.0384 24.25C98.1284 24.25 98.2284 24.245 98.3384 24.235C98.4584 24.215 98.5684 24.195 98.6684 24.175V25.015C98.5184 25.045 98.3634 25.065 98.2034 25.075C98.0434 25.095 97.8884 25.105 97.7384 25.105ZM102.272 25.135C101.592 25.135 101.087 24.985 100.757 24.685C100.427 24.385 100.207 23.98 100.097 23.47C99.9975 22.95 99.9475 22.365 99.9475 21.715V19.69C99.9475 18.89 100.012 18.235 100.142 17.725C100.272 17.205 100.502 16.82 100.832 16.57C101.172 16.32 101.652 16.195 102.272 16.195C102.882 16.195 103.347 16.31 103.667 16.54C103.987 16.77 104.202 17.095 104.312 17.515C104.422 17.935 104.477 18.42 104.477 18.97V19.39H103.457V18.97C103.457 18.46 103.417 18.065 103.337 17.785C103.267 17.505 103.142 17.31 102.962 17.2C102.792 17.08 102.562 17.02 102.272 17.02C101.932 17.02 101.672 17.1 101.492 17.26C101.312 17.42 101.192 17.685 101.132 18.055C101.072 18.415 101.042 18.9 101.042 19.51V21.94C101.042 22.81 101.127 23.425 101.297 23.785C101.467 24.135 101.797 24.31 102.287 24.31C102.627 24.31 102.882 24.235 103.052 24.085C103.222 23.925 103.332 23.69 103.382 23.38C103.432 23.07 103.457 22.685 103.457 22.225V21.745H104.477V22.165C104.477 22.745 104.422 23.26 104.312 23.71C104.212 24.15 104.002 24.5 103.682 24.76C103.362 25.01 102.892 25.135 102.272 25.135ZM106.183 25V12.85H107.278V17.245C107.568 16.935 107.888 16.685 108.238 16.495C108.588 16.295 108.973 16.195 109.393 16.195C109.683 16.195 109.923 16.27 110.113 16.42C110.313 16.56 110.463 16.77 110.563 17.05C110.673 17.32 110.728 17.65 110.728 18.04V25H109.618V18.28C109.618 17.83 109.548 17.515 109.408 17.335C109.278 17.145 109.073 17.05 108.793 17.05C108.543 17.05 108.283 17.13 108.013 17.29C107.753 17.44 107.508 17.635 107.278 17.875V25H106.183ZM115.876 25V12.85H116.971V17.245C117.261 16.935 117.581 16.685 117.931 16.495C118.281 16.295 118.666 16.195 119.086 16.195C119.376 16.195 119.616 16.27 119.806 16.42C120.006 16.56 120.156 16.77 120.256 17.05C120.366 17.32 120.421 17.65 120.421 18.04V25H119.311V18.28C119.311 17.83 119.241 17.515 119.101 17.335C118.971 17.145 118.766 17.05 118.486 17.05C118.236 17.05 117.976 17.13 117.706 17.29C117.446 17.44 117.201 17.635 116.971 17.875V25H115.876ZM124.442 25.135C123.902 25.135 123.457 25.03 123.107 24.82C122.767 24.6 122.512 24.24 122.342 23.74C122.182 23.24 122.102 22.575 122.102 21.745V19.555C122.102 18.695 122.187 18.025 122.357 17.545C122.527 17.055 122.787 16.71 123.137 16.51C123.487 16.3 123.927 16.195 124.457 16.195C125.067 16.195 125.532 16.325 125.852 16.585C126.172 16.845 126.392 17.24 126.512 17.77C126.642 18.29 126.707 18.96 126.707 19.78V20.56H123.197V22.075C123.197 22.635 123.237 23.08 123.317 23.41C123.407 23.73 123.542 23.96 123.722 24.1C123.912 24.24 124.152 24.31 124.442 24.31C124.662 24.31 124.862 24.27 125.042 24.19C125.222 24.1 125.362 23.935 125.462 23.695C125.572 23.445 125.627 23.095 125.627 22.645V22.045H126.692V22.525C126.692 23.315 126.527 23.95 126.197 24.43C125.877 24.9 125.292 25.135 124.442 25.135ZM123.197 19.93H125.627V19.21C125.627 18.75 125.602 18.36 125.552 18.04C125.502 17.71 125.392 17.46 125.222 17.29C125.062 17.11 124.802 17.02 124.442 17.02C124.142 17.02 123.897 17.085 123.707 17.215C123.527 17.345 123.397 17.58 123.317 17.92C123.237 18.25 123.197 18.725 123.197 19.345V19.93ZM128.485 25V16.33H129.595V17.515C129.875 17.055 130.195 16.73 130.555 16.54C130.915 16.34 131.26 16.24 131.59 16.24C131.62 16.24 131.65 16.24 131.68 16.24C131.71 16.24 131.745 16.245 131.785 16.255V17.425C131.715 17.395 131.63 17.375 131.53 17.365C131.43 17.345 131.335 17.335 131.245 17.335C130.905 17.335 130.595 17.415 130.315 17.575C130.045 17.735 129.805 17.99 129.595 18.34V25H128.485ZM135.219 25.135C134.679 25.135 134.234 25.03 133.884 24.82C133.544 24.6 133.289 24.24 133.119 23.74C132.959 23.24 132.879 22.575 132.879 21.745V19.555C132.879 18.695 132.964 18.025 133.134 17.545C133.304 17.055 133.564 16.71 133.914 16.51C134.264 16.3 134.704 16.195 135.234 16.195C135.844 16.195 136.309 16.325 136.629 16.585C136.949 16.845 137.169 17.24 137.289 17.77C137.419 18.29 137.484 18.96 137.484 19.78V20.56H133.974V22.075C133.974 22.635 134.014 23.08 134.094 23.41C134.184 23.73 134.319 23.96 134.499 24.1C134.689 24.24 134.929 24.31 135.219 24.31C135.439 24.31 135.639 24.27 135.819 24.19C135.999 24.1 136.139 23.935 136.239 23.695C136.349 23.445 136.404 23.095 136.404 22.645V22.045H137.469V22.525C137.469 23.315 137.304 23.95 136.974 24.43C136.654 24.9 136.069 25.135 135.219 25.135ZM133.974 19.93H136.404V19.21C136.404 18.75 136.379 18.36 136.329 18.04C136.279 17.71 136.169 17.46 135.999 17.29C135.839 17.11 135.579 17.02 135.219 17.02C134.919 17.02 134.674 17.085 134.484 17.215C134.304 17.345 134.174 17.58 134.094 17.92C134.014 18.25 133.974 18.725 133.974 19.345V19.93ZM139.247 25V23.35H140.402V25H139.247ZM142.182 25V23.35H143.337V25H142.182ZM145.117 25V23.35H146.272V25H145.117Z" fill="#B1B1B1"/>
<path d="M21.875 23.875C24.6364 23.875 26.875 21.6364 26.875 18.875C26.875 16.1136 24.6364 13.875 21.875 13.875C19.1136 13.875 16.875 16.1136 16.875 18.875C16.875 21.6364 19.1136 23.875 21.875 23.875Z" stroke="#B1B1B1" stroke-linecap="round" stroke-linejoin="round"/>
<path d="M28.125 25.125L25.4062 22.4062" stroke="#B1B1B1" stroke-linecap="round" stroke-linejoin="round"/>
</svg>
