<svg width="30" height="31" viewBox="0 0 30 31" fill="none" xmlns="http://www.w3.org/2000/svg">
<path fill-rule="evenodd" clip-rule="evenodd" d="M6.7749 0.429688H23.2251C25.0203 0.434957 26.7406 1.16653 28.01 2.46459C29.2794 3.76265 29.9948 5.52168 30 7.35741V24.0389C29.9942 25.8742 29.2785 27.6325 28.0091 28.9301C26.7398 30.2276 25.0199 30.9588 23.2251 30.9641H6.7749C4.98009 30.9588 3.26023 30.2276 1.99087 28.9301C0.721518 27.6325 0.00579691 25.8742 0 24.0389V7.35741C0.00515319 5.52168 0.72059 3.76265 1.99002 2.46459C3.25944 1.16653 4.97967 0.434957 6.7749 0.429688Z" fill="#0A66C2"/>
<path fill-rule="evenodd" clip-rule="evenodd" d="M12.0093 12.2641H15.8008V14.2613H15.8545C16.3843 13.2927 17.6733 12.2641 19.5996 12.2641C23.6011 12.2641 24.3408 14.8106 24.3408 18.1234V25.1285H20.3882V18.9023C20.3882 17.4768 20.3589 15.6419 18.3325 15.6419C16.3062 15.6419 15.9595 17.1922 15.9595 18.7999V25.141H12.0093V12.2641ZM9.76563 8.36465C9.76563 8.78039 9.64506 9.1868 9.41918 9.53248C9.1933 9.87816 8.87225 10.1476 8.49663 10.3067C8.12101 10.4658 7.70768 10.5074 7.30892 10.4263C6.91016 10.3452 6.54388 10.145 6.25639 9.85101C5.9689 9.55704 5.77312 9.18249 5.6938 8.77474C5.61448 8.36698 5.65519 7.94434 5.81078 7.56024C5.96636 7.17614 6.22984 6.84785 6.5679 6.61688C6.90595 6.3859 7.30339 6.26262 7.70996 6.26262C8.25496 6.26328 8.77745 6.48496 9.16282 6.87902C9.54819 7.27308 9.76498 7.80736 9.76563 8.36465ZM5.65918 12.2641H9.76563V25.1285H5.65918V12.2641Z" fill="white"/>
</svg>
