<svg width="116" height="36" viewBox="0 0 116 36" fill="none" xmlns="http://www.w3.org/2000/svg">
<g filter="url(#filter0_d_28_253)">
<rect x="3" y="2" width="110" height="30" fill="#FF3738"/>
</g>
<path d="M36.248 12.6H37.808L34.148 21H32.612L28.94 12.6H30.632L33.428 19.08L36.248 12.6ZM40.365 13.536C39.813 13.536 39.405 13.14 39.405 12.636C39.405 12.132 39.813 11.736 40.365 11.736C40.917 11.736 41.325 12.108 41.325 12.6C41.325 13.128 40.929 13.536 40.365 13.536ZM39.609 21V14.592H41.109V21H39.609ZM50.1018 17.832C50.1018 17.952 50.0898 18.132 50.0778 18.276H45.0498C45.2298 19.212 46.0098 19.812 47.1258 19.812C47.8458 19.812 48.4098 19.584 48.8658 19.116L49.6698 20.04C49.0938 20.724 48.1938 21.084 47.0898 21.084C44.9418 21.084 43.5498 19.704 43.5498 17.796C43.5498 15.888 44.9538 14.52 46.8618 14.52C48.7338 14.52 50.1018 15.828 50.1018 17.832ZM46.8618 15.72C45.8898 15.72 45.1818 16.344 45.0378 17.28H48.6738C48.5538 16.356 47.8458 15.72 46.8618 15.72ZM61.0894 14.592H62.4214L60.0574 21H58.6174L56.9614 16.584L55.2814 21H53.8414L51.4894 14.592H52.9054L54.5974 19.32L56.3614 14.592H57.6214L59.3494 19.344L61.0894 14.592ZM75.2012 21L74.3612 19.056H70.1612L69.3332 21H67.7252L71.5052 12.6H73.0412L76.8332 21H75.2012ZM70.6892 17.832H73.8452L72.2612 14.16L70.6892 17.832ZM78.7574 21V12.096H80.2574V21H78.7574ZM83.2262 21V12.096H84.7262V21H83.2262Z" fill="white"/>
<defs>
<filter id="filter0_d_28_253" x="0" y="0" width="116" height="36" filterUnits="userSpaceOnUse" color-interpolation-filters="sRGB">
<feFlood flood-opacity="0" result="BackgroundImageFix"/>
<feColorMatrix in="SourceAlpha" type="matrix" values="0 0 0 0 0 0 0 0 0 0 0 0 0 0 0 0 0 0 127 0" result="hardAlpha"/>
<feOffset dy="1"/>
<feGaussianBlur stdDeviation="1.5"/>
<feComposite in2="hardAlpha" operator="out"/>
<feColorMatrix type="matrix" values="0 0 0 0 0.0627451 0 0 0 0 0.0627451 0 0 0 0 0.0627451 0 0 0 0.02 0"/>
<feBlend mode="normal" in2="BackgroundImageFix" result="effect1_dropShadow_28_253"/>
<feBlend mode="normal" in="SourceGraphic" in2="effect1_dropShadow_28_253" result="shape"/>
</filter>
</defs>
</svg>
