<svg width="20" height="14" viewBox="0 0 20 14" fill="none" xmlns="http://www.w3.org/2000/svg">
<path d="M0.0078125 3.79744C0.172411 3.89607 0.29212 3.95948 0.396865 4.02994C2.8434 5.56582 5.28246 7.1017 7.729 8.63759C9.04579 9.46894 10.1157 9.46894 11.4325 8.64463C13.8865 7.1017 16.3405 5.56582 18.7945 4.02289C18.8918 3.95948 18.9965 3.90312 19.1537 3.80448C19.1537 3.96653 19.1537 4.07925 19.1537 4.18493C19.1537 6.69307 19.1537 9.20826 19.1537 11.7164C19.1537 12.8225 18.4205 13.52 17.2458 13.52C12.1358 13.52 7.02571 13.52 1.91566 13.52C0.741026 13.52 0.0078125 12.8225 0.0078125 11.7164C0.0078125 9.10258 0.0078125 6.48171 0.0078125 3.79744Z" fill="#FF3738"/>
<path d="M9.59219 0C12.1584 0 14.7322 0 17.2984 0C18.3982 0 19.2063 0.760896 19.1539 1.74724C19.1314 2.27564 18.8696 2.69132 18.4057 2.98722C15.7871 4.63583 13.1685 6.28444 10.5424 7.91896C9.91391 8.30645 9.23307 8.29941 8.6046 7.91191C5.98598 6.27739 3.37484 4.64288 0.771183 2.99427C0.0978237 2.57155 -0.141593 1.87406 0.0828602 1.17657C0.307313 0.486128 0.995636 0.00704534 1.81115 0C4.19035 0 6.56956 0 8.95624 0C9.16573 0 9.37522 0 9.59219 0Z" fill="#FF3738"/>
</svg>
