<svg width="14" height="19" viewBox="0 0 14 19" fill="none" xmlns="http://www.w3.org/2000/svg">
<path d="M6.98571 0.499815L7.01374 0.500012C10.3045 0.523174 13.0647 3.16136 13.4538 6.53939L13.4538 6.53947C13.6504 8.24848 13.1956 9.77681 12.5491 11.2055L12.5491 11.2056C11.6188 13.2608 10.3339 15.0448 8.93934 16.7099L6.98571 0.499815ZM6.98571 0.499815L6.95784 0.502752M6.98571 0.499815L6.95784 0.502752M6.95784 0.502752C6.87011 0.511995 6.77958 0.521112 6.6877 0.530364M6.95784 0.502752L6.6877 0.530364M7.6214 18.1898L7.62132 18.1899C7.50985 18.3156 7.31569 18.488 7.03403 18.4994C6.74317 18.5112 6.53282 18.3461 6.4059 18.21M7.6214 18.1898L6.40561 18.2097C6.40571 18.2098 6.40581 18.2099 6.4059 18.21M7.6214 18.1898C7.76819 18.0242 7.92209 17.8549 8.07846 17.6829M7.6214 18.1898L8.07846 17.6829M6.4059 18.21C4.47246 16.1426 2.70859 13.8986 1.46823 11.223M6.4059 18.21L1.46823 11.223M0.500906 7.16484L0.500909 7.16465C0.552656 3.90524 3.05957 0.942813 6.17763 0.584247L0.500906 7.16484ZM0.500906 7.16484C0.478089 8.63768 0.888451 9.97315 1.46823 11.223M0.500906 7.16484L1.46823 11.223M8.07846 17.6829C8.36666 17.366 8.66324 17.0398 8.93919 16.71L8.07846 17.6829ZM6.6877 0.530364C6.51929 0.547325 6.34633 0.564742 6.1778 0.584228L6.6877 0.530364ZM9.25637 7.41325C9.25214 8.75276 8.20151 9.81427 6.99927 9.80998C5.78167 9.80468 4.74648 8.73924 4.75282 7.36672C4.75915 6.02313 5.80387 4.96705 7.01185 4.96918C8.22352 4.9713 9.26062 6.03549 9.25637 7.41325Z" fill="#FF3738" stroke="white"/>
</svg>
