<svg width="17" height="17" viewBox="0 0 17 17" fill="none" xmlns="http://www.w3.org/2000/svg">
<path d="M0 3.93172C0.00583318 3.18817 0.104997 2.52447 0.4161 1.91094C0.519049 1.71294 0.648943 1.53021 0.802062 1.368C1.11025 1.03251 1.44128 0.718919 1.76551 0.39949C2.30022 -0.127861 3.0352 -0.136139 3.56893 0.392672C4.50613 1.3198 5.43846 2.25195 6.36594 3.18914C6.90065 3.72915 6.89336 4.4654 6.35768 5.00736C6.07574 5.29221 5.80741 5.59168 5.50312 5.85316C5.16285 6.14532 5.11424 6.50419 5.16285 6.90592C5.24986 7.61684 5.55173 8.24304 5.94838 8.82541C6.7694 10.0369 7.8116 10.9981 9.16878 11.5829C9.62328 11.7777 10.0992 11.9209 10.6018 11.8167C10.7586 11.7814 10.9037 11.7061 11.0228 11.598C11.363 11.2849 11.6785 10.948 12.0071 10.6242C12.5263 10.1119 13.2656 10.0973 13.7848 10.6091C14.7365 11.5475 15.6818 12.4925 16.6207 13.444C17.1286 13.9592 17.1243 14.6891 16.6207 15.2077C16.2532 15.5875 15.8862 15.9692 15.4968 16.3276C15.1765 16.6198 14.7618 16.7469 14.3486 16.8506C13.3385 17.1043 12.3342 17.0093 11.3402 16.7571C9.50273 16.2901 7.88548 15.381 6.3951 14.2362C4.13815 12.5013 2.30556 10.4041 1.04414 7.83596C0.496794 6.72234 0.11229 5.55711 0.0194451 4.30958C0.00875095 4.16106 0.00437488 4.01547 0 3.93172Z" fill="#FF3738"/>
</svg>
