<svg width="116" height="36" viewBox="0 0 116 36" fill="none" xmlns="http://www.w3.org/2000/svg">
<g filter="url(#filter0_d_28_429)">
<rect x="3" y="2" width="110" height="30" fill="#FF3738"/>
</g>
<path d="M22.128 21V12.6H23.688V19.68H28.08V21H22.128ZM32.989 21.084C31.021 21.084 29.581 19.716 29.581 17.796C29.581 15.876 31.021 14.52 32.989 14.52C34.981 14.52 36.409 15.876 36.409 17.796C36.409 19.716 34.981 21.084 32.989 21.084ZM32.989 19.8C34.081 19.8 34.897 19.02 34.897 17.796C34.897 16.572 34.081 15.792 32.989 15.792C31.909 15.792 31.093 16.572 31.093 17.796C31.093 19.02 31.909 19.8 32.989 19.8ZM41.2093 14.52C43.0573 14.52 44.1253 15.396 44.1253 17.244V21H42.7093V20.22C42.3493 20.772 41.6533 21.084 40.6933 21.084C39.2293 21.084 38.3053 20.28 38.3053 19.164C38.3053 18.096 39.0253 17.256 40.9693 17.256H42.6253V17.16C42.6253 16.284 42.0973 15.768 41.0293 15.768C40.3093 15.768 39.5653 16.008 39.0853 16.404L38.4973 15.312C39.1813 14.784 40.1773 14.52 41.2093 14.52ZM41.0053 19.992C41.7373 19.992 42.3733 19.656 42.6253 18.996V18.252H41.0773C40.0573 18.252 39.7813 18.636 39.7813 19.104C39.7813 19.644 40.2373 19.992 41.0053 19.992ZM51.885 12.096H53.385V21H51.945V20.172C51.441 20.784 50.697 21.084 49.821 21.084C47.961 21.084 46.581 19.788 46.581 17.796C46.581 15.804 47.961 14.52 49.821 14.52C50.649 14.52 51.381 14.796 51.885 15.384V12.096ZM50.001 19.8C51.081 19.8 51.909 19.02 51.909 17.796C51.909 16.572 51.081 15.792 50.001 15.792C48.921 15.792 48.093 16.572 48.093 17.796C48.093 19.02 48.921 19.8 50.001 19.8ZM69.9997 21H68.5237L68.5117 15.432L65.7517 20.04H65.0557L62.2957 15.504V21H60.8077V12.6H62.0917L65.4277 18.168L68.7037 12.6H69.9877L69.9997 21ZM76.0046 21.084C74.0366 21.084 72.5966 19.716 72.5966 17.796C72.5966 15.876 74.0366 14.52 76.0046 14.52C77.9966 14.52 79.4246 15.876 79.4246 17.796C79.4246 19.716 77.9966 21.084 76.0046 21.084ZM76.0046 19.8C77.0966 19.8 77.9126 19.02 77.9126 17.796C77.9126 16.572 77.0966 15.792 76.0046 15.792C74.9246 15.792 74.1086 16.572 74.1086 17.796C74.1086 19.02 74.9246 19.8 76.0046 19.8ZM83.287 15.528C83.719 14.856 84.499 14.52 85.567 14.52V15.948C85.435 15.924 85.327 15.912 85.219 15.912C84.079 15.912 83.359 16.584 83.359 17.892V21H81.859V14.592H83.287V15.528ZM93.8049 17.832C93.8049 17.952 93.7929 18.132 93.7809 18.276H88.7529C88.9329 19.212 89.7129 19.812 90.8289 19.812C91.5489 19.812 92.1129 19.584 92.5689 19.116L93.3729 20.04C92.7969 20.724 91.8969 21.084 90.7929 21.084C88.6449 21.084 87.2529 19.704 87.2529 17.796C87.2529 15.888 88.6569 14.52 90.5649 14.52C92.4369 14.52 93.8049 15.828 93.8049 17.832ZM90.5649 15.72C89.5929 15.72 88.8849 16.344 88.7409 17.28H92.3769C92.2569 16.356 91.5489 15.72 90.5649 15.72Z" fill="white"/>
<defs>
<filter id="filter0_d_28_429" x="0" y="0" width="116" height="36" filterUnits="userSpaceOnUse" color-interpolation-filters="sRGB">
<feFlood flood-opacity="0" result="BackgroundImageFix"/>
<feColorMatrix in="SourceAlpha" type="matrix" values="0 0 0 0 0 0 0 0 0 0 0 0 0 0 0 0 0 0 127 0" result="hardAlpha"/>
<feOffset dy="1"/>
<feGaussianBlur stdDeviation="1.5"/>
<feComposite in2="hardAlpha" operator="out"/>
<feColorMatrix type="matrix" values="0 0 0 0 0.0627451 0 0 0 0 0.0627451 0 0 0 0 0.0627451 0 0 0 0.02 0"/>
<feBlend mode="normal" in2="BackgroundImageFix" result="effect1_dropShadow_28_429"/>
<feBlend mode="normal" in="SourceGraphic" in2="effect1_dropShadow_28_429" result="shape"/>
</filter>
</defs>
</svg>
