<svg width="1366" height="313" viewBox="0 0 1366 313" fill="none" xmlns="http://www.w3.org/2000/svg">
<rect opacity="0.6" width="1366" height="313" transform="matrix(1 0 0 -1 0 313)" fill="black"/>
<path d="M633.688 126.5V132H630.529V116.359H635.857C637.404 116.359 638.636 116.839 639.553 117.799C640.477 118.758 640.938 120.005 640.938 121.537C640.938 123.07 640.484 124.28 639.574 125.168C638.665 126.056 637.404 126.5 635.793 126.5H633.688ZM633.688 123.868H635.857C636.459 123.868 636.924 123.671 637.254 123.277C637.583 122.883 637.748 122.311 637.748 121.559C637.748 120.778 637.58 120.159 637.243 119.7C636.907 119.235 636.455 118.998 635.89 118.991H633.688V123.868ZM649.792 126.285H648.224V132H645.065V116.359H650.104C651.686 116.359 652.907 116.771 653.767 117.595C654.633 118.411 655.066 119.575 655.066 121.086C655.066 123.163 654.311 124.617 652.8 125.447L655.539 131.85V132H652.145L649.792 126.285ZM648.224 123.653H650.018C650.648 123.653 651.12 123.446 651.436 123.03C651.751 122.608 651.908 122.046 651.908 121.344C651.908 119.775 651.296 118.991 650.071 118.991H648.224V123.653ZM670.247 125.587C670.247 127.685 669.749 129.314 668.754 130.475C667.766 131.635 666.391 132.215 664.629 132.215C662.874 132.215 661.496 131.642 660.493 130.496C659.491 129.343 658.982 127.732 658.968 125.662V122.987C658.968 120.839 659.465 119.163 660.461 117.96C661.456 116.75 662.839 116.145 664.607 116.145C666.348 116.145 667.719 116.739 668.722 117.928C669.724 119.109 670.233 120.771 670.247 122.912V125.587ZM667.078 122.966C667.078 121.555 666.878 120.506 666.477 119.818C666.076 119.131 665.452 118.787 664.607 118.787C663.77 118.787 663.15 119.12 662.749 119.786C662.348 120.445 662.14 121.451 662.126 122.805V125.587C662.126 126.955 662.33 127.965 662.738 128.616C663.146 129.261 663.777 129.583 664.629 129.583C665.452 129.583 666.065 129.268 666.466 128.638C666.867 128 667.071 127.016 667.078 125.684V122.966ZM679.659 116.359H682.817V127.188C682.817 128.706 682.395 129.923 681.55 130.84C680.705 131.757 679.616 132.215 678.284 132.215C676.852 132.215 675.738 131.789 674.943 130.937C674.148 130.084 673.751 128.899 673.751 127.381H676.92C676.92 128.856 677.375 129.594 678.284 129.594C679.201 129.594 679.659 128.742 679.659 127.037V116.359ZM695.377 125.232H690.457V129.379H696.279V132H687.299V116.359H696.258V118.991H690.457V122.687H695.377V125.232ZM710.708 126.79C710.629 128.573 710.128 129.923 709.204 130.84C708.28 131.757 706.977 132.215 705.294 132.215C703.525 132.215 702.168 131.635 701.223 130.475C700.285 129.307 699.815 127.646 699.815 125.49V122.858C699.815 120.71 700.302 119.056 701.276 117.896C702.25 116.728 703.604 116.145 705.337 116.145C707.041 116.145 708.334 116.621 709.215 117.573C710.103 118.526 710.608 119.894 710.729 121.677H707.561C707.532 120.574 707.36 119.815 707.045 119.399C706.737 118.977 706.168 118.766 705.337 118.766C704.492 118.766 703.894 119.063 703.543 119.657C703.192 120.244 703.006 121.215 702.984 122.568V125.522C702.984 127.076 703.156 128.144 703.5 128.724C703.851 129.304 704.449 129.594 705.294 129.594C706.125 129.594 706.698 129.393 707.013 128.992C707.328 128.584 707.507 127.85 707.55 126.79H710.708ZM724.46 118.991H720.593V132H717.424V118.991H713.621V116.359H724.46V118.991ZM734.71 127.896C734.71 127.259 734.545 126.779 734.216 126.457C733.894 126.128 733.303 125.787 732.443 125.437C730.875 124.842 729.747 124.147 729.06 123.353C728.372 122.55 728.028 121.605 728.028 120.517C728.028 119.199 728.494 118.143 729.425 117.348C730.363 116.546 731.552 116.145 732.991 116.145C733.951 116.145 734.807 116.349 735.559 116.757C736.311 117.158 736.887 117.727 737.288 118.465C737.696 119.202 737.9 120.04 737.9 120.979H734.753C734.753 120.248 734.595 119.693 734.28 119.313C733.972 118.927 733.525 118.733 732.938 118.733C732.386 118.733 731.956 118.898 731.648 119.228C731.34 119.55 731.187 119.987 731.187 120.538C731.187 120.968 731.358 121.358 731.702 121.709C732.046 122.053 732.655 122.411 733.528 122.783C735.054 123.335 736.16 124.011 736.848 124.813C737.542 125.616 737.89 126.636 737.89 127.875C737.89 129.236 737.456 130.299 736.59 131.065C735.723 131.832 734.545 132.215 733.056 132.215C732.046 132.215 731.126 132.007 730.295 131.592C729.464 131.176 728.812 130.582 728.34 129.809C727.874 129.035 727.642 128.122 727.642 127.069H730.811C730.811 127.972 730.986 128.627 731.337 129.035C731.688 129.443 732.261 129.647 733.056 129.647C734.159 129.647 734.71 129.064 734.71 127.896Z" fill="white"/>
<path d="M558.39 192.75V204H551.93V172.008H562.829C565.993 172.008 568.512 172.989 570.387 174.952C572.277 176.915 573.222 179.464 573.222 182.599C573.222 185.733 572.292 188.209 570.431 190.025C568.571 191.842 565.993 192.75 562.697 192.75H558.39ZM558.39 187.367H562.829C564.059 187.367 565.011 186.964 565.685 186.158C566.359 185.353 566.696 184.181 566.696 182.643C566.696 181.046 566.352 179.779 565.663 178.841C564.975 177.889 564.052 177.406 562.895 177.391H558.39V187.367ZM585.307 182.313C586.655 180.628 588.31 179.786 590.273 179.786C592.441 179.786 594.089 180.548 595.217 182.071C596.345 183.595 596.916 185.865 596.931 188.883V204H590.69V188.949C590.69 187.557 590.471 186.554 590.031 185.938C589.606 185.309 588.911 184.994 587.944 184.994C586.816 184.994 585.937 185.514 585.307 186.554V204H579.089V170.25H585.307V182.313ZM602.666 191.344C602.666 187.74 603.516 184.913 605.215 182.862C606.914 180.812 609.265 179.786 612.268 179.786C615.3 179.786 617.666 180.812 619.365 182.862C621.064 184.913 621.914 187.755 621.914 191.388V192.904C621.914 196.522 621.072 199.349 619.387 201.385C617.703 203.421 615.344 204.439 612.312 204.439C609.265 204.439 606.892 203.421 605.193 201.385C603.508 199.334 602.666 196.493 602.666 192.86V191.344ZM608.906 192.904C608.906 197.152 610.042 199.276 612.312 199.276C614.407 199.276 615.535 197.503 615.696 193.958L615.718 191.344C615.718 189.176 615.417 187.572 614.817 186.532C614.216 185.477 613.367 184.95 612.268 184.95C611.213 184.95 610.386 185.477 609.785 186.532C609.199 187.572 608.906 189.176 608.906 191.344V192.904ZM635.032 174.381V180.226H638.218V184.906H635.032V196.705C635.032 197.643 635.157 198.287 635.406 198.639C635.669 198.99 636.167 199.166 636.9 199.166C637.5 199.166 637.991 199.115 638.372 199.012L638.328 203.846C637.273 204.242 636.131 204.439 634.9 204.439C630.887 204.439 628.858 202.14 628.814 197.54V184.906H626.067V180.226H628.814V174.381H635.032ZM642.262 191.344C642.262 187.74 643.111 184.913 644.811 182.862C646.51 180.812 648.861 179.786 651.864 179.786C654.896 179.786 657.262 180.812 658.961 182.862C660.66 184.913 661.51 187.755 661.51 191.388V192.904C661.51 196.522 660.667 199.349 658.983 201.385C657.298 203.421 654.94 204.439 651.908 204.439C648.861 204.439 646.488 203.421 644.789 201.385C643.104 199.334 642.262 196.493 642.262 192.86V191.344ZM648.502 192.904C648.502 197.152 649.637 199.276 651.908 199.276C654.002 199.276 655.13 197.503 655.292 193.958L655.313 191.344C655.313 189.176 655.013 187.572 654.413 186.532C653.812 185.477 652.962 184.95 651.864 184.95C650.809 184.95 649.981 185.477 649.381 186.532C648.795 187.572 648.502 189.176 648.502 191.344V192.904ZM701.831 200.375C700.585 201.722 699.055 202.74 697.238 203.429C695.437 204.103 693.459 204.439 691.306 204.439C687.629 204.439 684.772 203.304 682.736 201.034C680.7 198.749 679.653 195.431 679.594 191.08V185.323C679.594 180.914 680.554 177.523 682.473 175.15C684.406 172.762 687.219 171.568 690.91 171.568C694.382 171.568 696.997 172.425 698.754 174.139C700.527 175.853 701.552 178.541 701.831 182.203H695.546C695.371 180.167 694.946 178.783 694.272 178.05C693.598 177.303 692.543 176.93 691.108 176.93C689.365 176.93 688.098 177.567 687.307 178.841C686.516 180.116 686.105 182.145 686.076 184.928V190.729C686.076 193.644 686.508 195.768 687.373 197.101C688.251 198.419 689.687 199.078 691.679 199.078C692.954 199.078 693.986 198.822 694.777 198.309L695.349 197.914V192.047H690.822V187.169H701.831V200.375ZM719.387 204C719.211 203.634 719.036 203.019 718.86 202.154C717.747 203.678 716.238 204.439 714.333 204.439C712.341 204.439 710.686 203.78 709.368 202.462C708.064 201.144 707.412 199.437 707.412 197.342C707.412 194.852 708.203 192.926 709.785 191.563C711.382 190.201 713.674 189.505 716.663 189.476H718.552V187.564C718.552 186.495 718.369 185.741 718.003 185.301C717.637 184.862 717.102 184.642 716.399 184.642C714.846 184.642 714.07 185.55 714.07 187.367H707.852C707.852 185.169 708.672 183.36 710.312 181.939C711.968 180.504 714.055 179.786 716.575 179.786C719.182 179.786 721.196 180.467 722.617 181.83C724.053 183.177 724.771 185.111 724.771 187.63V198.814C724.8 200.865 725.093 202.469 725.649 203.626V204H719.387ZM715.718 199.562C716.406 199.562 716.992 199.422 717.476 199.144C717.959 198.866 718.318 198.536 718.552 198.155V193.211H717.058C716.003 193.211 715.168 193.548 714.553 194.222C713.953 194.896 713.652 195.797 713.652 196.925C713.652 198.683 714.341 199.562 715.718 199.562ZM737.801 204H731.561V170.25H737.801V204ZM751.139 204H744.898V170.25H751.139V204ZM767.553 204.439C764.359 204.439 761.869 203.487 760.082 201.583C758.295 199.679 757.401 196.954 757.401 193.409V191.52C757.401 187.77 758.222 184.876 759.862 182.84C761.503 180.804 763.854 179.786 766.916 179.786C769.904 179.786 772.152 180.746 773.661 182.665C775.17 184.569 775.939 187.396 775.968 191.146V194.2H763.598C763.686 195.958 764.074 197.247 764.762 198.067C765.451 198.873 766.513 199.276 767.948 199.276C770.028 199.276 771.764 198.565 773.156 197.145L775.595 200.902C774.833 201.957 773.727 202.813 772.277 203.473C770.827 204.117 769.252 204.439 767.553 204.439ZM763.642 189.85H769.86V189.278C769.831 187.857 769.596 186.781 769.157 186.048C768.717 185.316 767.956 184.95 766.872 184.95C765.788 184.95 764.997 185.338 764.499 186.114C764.015 186.891 763.729 188.136 763.642 189.85ZM793.217 186.224L791.152 186.048C789.453 186.048 788.303 186.795 787.702 188.29V204H781.462V180.226H787.329L787.504 182.796C788.486 180.79 789.841 179.786 791.569 179.786C792.272 179.786 792.844 179.881 793.283 180.072L793.217 186.224ZM806.445 193.651L809.609 180.226H816.245L808.423 207.56C807.251 211.588 805.046 213.602 801.809 213.602C801.062 213.602 800.212 213.463 799.26 213.185V208.329L799.985 208.351C800.952 208.351 801.677 208.16 802.161 207.779C802.659 207.413 803.032 206.769 803.281 205.846L803.765 204.242L796.909 180.226H803.589L806.445 193.651Z" fill="white"/>
</svg>
